G04 #@! TF.GenerationSoftware,KiCad,Pcbnew,(5.1.5)-3*
G04 #@! TF.CreationDate,2020-03-22T16:58:52-07:00*
G04 #@! TF.ProjectId,ESP-BuildStatus-Light-Board,4553502d-4275-4696-9c64-537461747573,rev?*
G04 #@! TF.SameCoordinates,Original*
G04 #@! TF.FileFunction,Copper,L1,Top*
G04 #@! TF.FilePolarity,Positive*
%FSLAX46Y46*%
G04 Gerber Fmt 4.6, Leading zero omitted, Abs format (unit mm)*
G04 Created by KiCad (PCBNEW (5.1.5)-3) date 2020-03-22 16:58:52*
%MOMM*%
%LPD*%
G04 APERTURE LIST*
%ADD10C,0.050000*%
%ADD11R,0.900000X1.200000*%
%ADD12R,2.000000X1.100000*%
%ADD13R,0.750000X1.200000*%
%ADD14O,1.700000X1.700000*%
%ADD15R,1.700000X1.700000*%
%ADD16R,1.200000X0.900000*%
%ADD17C,2.500000*%
%ADD18C,2.000000*%
%ADD19R,1.600000X0.300000*%
%ADD20C,1.778000*%
%ADD21C,0.800000*%
%ADD22C,2.000000*%
%ADD23C,0.500000*%
%ADD24C,0.250000*%
%ADD25C,1.000000*%
G04 APERTURE END LIST*
D10*
X130429000Y-144907000D02*
X130429000Y-18288000D01*
X243459000Y-144907000D02*
X130429000Y-144907000D01*
X243459000Y-18288000D02*
X243459000Y-144907000D01*
X130429000Y-18288000D02*
X243459000Y-18288000D01*
D11*
X183515000Y-131996000D03*
X183515000Y-134196000D03*
D12*
X173320000Y-91350000D03*
X173320000Y-89650000D03*
X173320000Y-87950000D03*
X168520000Y-91350000D03*
X168520000Y-89650000D03*
X168520000Y-87950000D03*
X173320000Y-123350000D03*
X173320000Y-121650000D03*
X173320000Y-119950000D03*
X168520000Y-123350000D03*
X168520000Y-121650000D03*
X168520000Y-119950000D03*
X237320000Y-43350000D03*
X237320000Y-41650000D03*
X237320000Y-39950000D03*
X232520000Y-43350000D03*
X232520000Y-41650000D03*
X232520000Y-39950000D03*
X189320000Y-59350000D03*
X189320000Y-57650000D03*
X189320000Y-55950000D03*
X184520000Y-59350000D03*
X184520000Y-57650000D03*
X184520000Y-55950000D03*
X173320000Y-75350000D03*
X173320000Y-73650000D03*
X173320000Y-71950000D03*
X168520000Y-75350000D03*
X168520000Y-73650000D03*
X168520000Y-71950000D03*
X157320000Y-75350000D03*
X157320000Y-73650000D03*
X157320000Y-71950000D03*
X152520000Y-75350000D03*
X152520000Y-73650000D03*
X152520000Y-71950000D03*
X189320000Y-91350000D03*
X189320000Y-89650000D03*
X189320000Y-87950000D03*
X184520000Y-91350000D03*
X184520000Y-89650000D03*
X184520000Y-87950000D03*
X205320000Y-59350000D03*
X205320000Y-57650000D03*
X205320000Y-55950000D03*
X200520000Y-59350000D03*
X200520000Y-57650000D03*
X200520000Y-55950000D03*
X237320000Y-59350000D03*
X237320000Y-57650000D03*
X237320000Y-55950000D03*
X232520000Y-59350000D03*
X232520000Y-57650000D03*
X232520000Y-55950000D03*
X205320000Y-75350000D03*
X205320000Y-73650000D03*
X205320000Y-71950000D03*
X200520000Y-75350000D03*
X200520000Y-73650000D03*
X200520000Y-71950000D03*
X173320000Y-59350000D03*
X173320000Y-57650000D03*
X173320000Y-55950000D03*
X168520000Y-59350000D03*
X168520000Y-57650000D03*
X168520000Y-55950000D03*
X221320000Y-59350000D03*
X221320000Y-57650000D03*
X221320000Y-55950000D03*
X216520000Y-59350000D03*
X216520000Y-57650000D03*
X216520000Y-55950000D03*
X157320000Y-91350000D03*
X157320000Y-89650000D03*
X157320000Y-87950000D03*
X152520000Y-91350000D03*
X152520000Y-89650000D03*
X152520000Y-87950000D03*
X221320000Y-75350000D03*
X221320000Y-73650000D03*
X221320000Y-71950000D03*
X216520000Y-75350000D03*
X216520000Y-73650000D03*
X216520000Y-71950000D03*
X221320000Y-43350000D03*
X221320000Y-41650000D03*
X221320000Y-39950000D03*
X216520000Y-43350000D03*
X216520000Y-41650000D03*
X216520000Y-39950000D03*
X157320000Y-59350000D03*
X157320000Y-57650000D03*
X157320000Y-55950000D03*
X152520000Y-59350000D03*
X152520000Y-57650000D03*
X152520000Y-55950000D03*
X189320000Y-75350000D03*
X189320000Y-73650000D03*
X189320000Y-71950000D03*
X184520000Y-75350000D03*
X184520000Y-73650000D03*
X184520000Y-71950000D03*
X237320000Y-75350000D03*
X237320000Y-73650000D03*
X237320000Y-71950000D03*
X232520000Y-75350000D03*
X232520000Y-73650000D03*
X232520000Y-71950000D03*
X237320000Y-91350000D03*
X237320000Y-89650000D03*
X237320000Y-87950000D03*
X232520000Y-91350000D03*
X232520000Y-89650000D03*
X232520000Y-87950000D03*
X221320000Y-91350000D03*
X221320000Y-89650000D03*
X221320000Y-87950000D03*
X216520000Y-91350000D03*
X216520000Y-89650000D03*
X216520000Y-87950000D03*
X205320000Y-91350000D03*
X205320000Y-89650000D03*
X205320000Y-87950000D03*
X200520000Y-91350000D03*
X200520000Y-89650000D03*
X200520000Y-87950000D03*
X173320000Y-107350000D03*
X173320000Y-105650000D03*
X173320000Y-103950000D03*
X168520000Y-107350000D03*
X168520000Y-105650000D03*
X168520000Y-103950000D03*
X221320000Y-107350000D03*
X221320000Y-105650000D03*
X221320000Y-103950000D03*
X216520000Y-107350000D03*
X216520000Y-105650000D03*
X216520000Y-103950000D03*
X237320000Y-107350000D03*
X237320000Y-105650000D03*
X237320000Y-103950000D03*
X232520000Y-107350000D03*
X232520000Y-105650000D03*
X232520000Y-103950000D03*
X189320000Y-107350000D03*
X189320000Y-105650000D03*
X189320000Y-103950000D03*
X184520000Y-107350000D03*
X184520000Y-105650000D03*
X184520000Y-103950000D03*
X157320000Y-123350000D03*
X157320000Y-121650000D03*
X157320000Y-119950000D03*
X152520000Y-123350000D03*
X152520000Y-121650000D03*
X152520000Y-119950000D03*
X157320000Y-107350000D03*
X157320000Y-105650000D03*
X157320000Y-103950000D03*
X152520000Y-107350000D03*
X152520000Y-105650000D03*
X152520000Y-103950000D03*
X205320000Y-107350000D03*
X205320000Y-105650000D03*
X205320000Y-103950000D03*
X200520000Y-107350000D03*
X200520000Y-105650000D03*
X200520000Y-103950000D03*
X189320000Y-123350000D03*
X189320000Y-121650000D03*
X189320000Y-119950000D03*
X184520000Y-123350000D03*
X184520000Y-121650000D03*
X184520000Y-119950000D03*
X205320000Y-123350000D03*
X205320000Y-121650000D03*
X205320000Y-119950000D03*
X200520000Y-123350000D03*
X200520000Y-121650000D03*
X200520000Y-119950000D03*
X221320000Y-123350000D03*
X221320000Y-121650000D03*
X221320000Y-119950000D03*
X216520000Y-123350000D03*
X216520000Y-121650000D03*
X216520000Y-119950000D03*
X237320000Y-123350000D03*
X237320000Y-121650000D03*
X237320000Y-119950000D03*
X232520000Y-123350000D03*
X232520000Y-121650000D03*
X232520000Y-119950000D03*
X237320000Y-27350000D03*
X237320000Y-25650000D03*
X237320000Y-23950000D03*
X232520000Y-27350000D03*
X232520000Y-25650000D03*
X232520000Y-23950000D03*
X173320000Y-27350000D03*
X173320000Y-25650000D03*
X173320000Y-23950000D03*
X168520000Y-27350000D03*
X168520000Y-25650000D03*
X168520000Y-23950000D03*
X157320000Y-43350000D03*
X157320000Y-41650000D03*
X157320000Y-39950000D03*
X152520000Y-43350000D03*
X152520000Y-41650000D03*
X152520000Y-39950000D03*
X173320000Y-43350000D03*
X173320000Y-41650000D03*
X173320000Y-39950000D03*
X168520000Y-43350000D03*
X168520000Y-41650000D03*
X168520000Y-39950000D03*
X205320000Y-27350000D03*
X205320000Y-25650000D03*
X205320000Y-23950000D03*
X200520000Y-27350000D03*
X200520000Y-25650000D03*
X200520000Y-23950000D03*
X221320000Y-27350000D03*
X221320000Y-25650000D03*
X221320000Y-23950000D03*
X216520000Y-27350000D03*
X216520000Y-25650000D03*
X216520000Y-23950000D03*
X189320000Y-43350000D03*
X189320000Y-41650000D03*
X189320000Y-39950000D03*
X184520000Y-43350000D03*
X184520000Y-41650000D03*
X184520000Y-39950000D03*
X205320000Y-43350000D03*
X205320000Y-41650000D03*
X205320000Y-39950000D03*
X200520000Y-43350000D03*
X200520000Y-41650000D03*
X200520000Y-39950000D03*
X189320000Y-27350000D03*
X189320000Y-25650000D03*
X189320000Y-23950000D03*
X184520000Y-27350000D03*
X184520000Y-25650000D03*
X184520000Y-23950000D03*
X157320000Y-27350000D03*
X157320000Y-25650000D03*
X157320000Y-23950000D03*
X152520000Y-27350000D03*
X152520000Y-25650000D03*
X152520000Y-23950000D03*
X141320000Y-107350000D03*
X141320000Y-105650000D03*
X141320000Y-103950000D03*
X136520000Y-107350000D03*
X136520000Y-105650000D03*
X136520000Y-103950000D03*
X141320000Y-75350000D03*
X141320000Y-73650000D03*
X141320000Y-71950000D03*
X136520000Y-75350000D03*
X136520000Y-73650000D03*
X136520000Y-71950000D03*
X141320000Y-59350000D03*
X141320000Y-57650000D03*
X141320000Y-55950000D03*
X136520000Y-59350000D03*
X136520000Y-57650000D03*
X136520000Y-55950000D03*
X141320000Y-91350000D03*
X141320000Y-89650000D03*
X141320000Y-87950000D03*
X136520000Y-91350000D03*
X136520000Y-89650000D03*
X136520000Y-87950000D03*
X141320000Y-123350000D03*
X141320000Y-121650000D03*
X141320000Y-119950000D03*
X136520000Y-123350000D03*
X136520000Y-121650000D03*
X136520000Y-119950000D03*
X141320000Y-43350000D03*
X141320000Y-41650000D03*
X141320000Y-39950000D03*
X136520000Y-43350000D03*
X136520000Y-41650000D03*
X136520000Y-39950000D03*
X141320000Y-27350000D03*
X141320000Y-25650000D03*
X141320000Y-23950000D03*
X136520000Y-27350000D03*
X136520000Y-25650000D03*
X136520000Y-23950000D03*
D13*
X158623000Y-133736000D03*
X158623000Y-135636000D03*
D14*
X186055000Y-139700000D03*
X183515000Y-139700000D03*
X180975000Y-139700000D03*
X178435000Y-139700000D03*
X175895000Y-139700000D03*
X173355000Y-139700000D03*
X170815000Y-139700000D03*
X168275000Y-139700000D03*
X165735000Y-139700000D03*
X163195000Y-139700000D03*
X160655000Y-139700000D03*
X158115000Y-139700000D03*
X155575000Y-139700000D03*
X153035000Y-139700000D03*
X150495000Y-139700000D03*
D15*
X147955000Y-139700000D03*
D16*
X168867000Y-128270000D03*
X166667000Y-128270000D03*
X163703000Y-128270000D03*
X161503000Y-128270000D03*
D17*
X212979000Y-137160000D03*
X217979000Y-137160000D03*
X215479000Y-142200000D03*
D18*
X238887000Y-141914000D03*
X238887000Y-137414000D03*
X232387000Y-141914000D03*
X232387000Y-137414000D03*
D19*
X161030000Y-134990000D03*
X161030000Y-135640000D03*
X161030000Y-134340000D03*
X161030000Y-133690000D03*
X161030000Y-133040000D03*
X161030000Y-132390000D03*
X161030000Y-131740000D03*
X161030000Y-131090000D03*
X166630000Y-129790000D03*
X166630000Y-130440000D03*
X166630000Y-131090000D03*
X166630000Y-131740000D03*
X166630000Y-135640000D03*
X166630000Y-134990000D03*
X166630000Y-134340000D03*
X166630000Y-133690000D03*
X166630000Y-133040000D03*
X166630000Y-132390000D03*
X161030000Y-130440000D03*
X161030000Y-129790000D03*
D20*
X186309000Y-50038000D03*
X175387000Y-50038000D03*
D21*
X154430000Y-27305000D03*
X170430000Y-27305000D03*
X218430000Y-27305000D03*
X234430000Y-27305000D03*
X154430000Y-43305000D03*
X170430000Y-43305000D03*
X186430000Y-43305000D03*
X202692000Y-43305000D03*
X218430000Y-43305000D03*
X234430000Y-43305000D03*
X154430000Y-59305000D03*
X170430000Y-59305000D03*
X186430000Y-59305000D03*
X202430000Y-59305000D03*
X218430000Y-59305000D03*
X234430000Y-59305000D03*
X154430000Y-75305000D03*
X186430000Y-75305000D03*
X218430000Y-75305000D03*
X234430000Y-75305000D03*
X154430000Y-91305000D03*
X170430000Y-91305000D03*
X186430000Y-91305000D03*
X202430000Y-91305000D03*
X218430000Y-91305000D03*
X234430000Y-91305000D03*
X154430000Y-107305000D03*
X170430000Y-107305000D03*
X186430000Y-107305000D03*
X202430000Y-107305000D03*
X218430000Y-107305000D03*
X234430000Y-107305000D03*
X154430000Y-123305000D03*
X170561000Y-123305000D03*
X186430000Y-123305000D03*
X202430000Y-123305000D03*
X218430000Y-123305000D03*
X234430000Y-123305000D03*
X134620000Y-27305000D03*
X134747000Y-43307000D03*
X134620000Y-59309000D03*
X134620000Y-75311000D03*
X134620000Y-91313000D03*
X134620000Y-107442000D03*
X134747000Y-123317000D03*
X165100000Y-128270000D03*
X165100000Y-129540000D03*
X157480004Y-133731000D03*
X166243000Y-75311000D03*
X202311000Y-75350000D03*
X202946006Y-27305000D03*
X186690000Y-28702000D03*
X168401998Y-135763000D03*
D20*
X175387000Y-46482000D03*
D21*
X193548000Y-26543000D03*
X191643000Y-28448010D03*
X193815021Y-33121247D03*
X169545012Y-133477000D03*
X169545000Y-131808994D03*
X168529000Y-134204988D03*
X172593000Y-130937000D03*
X171703999Y-132588000D03*
X169416271Y-134835990D03*
X193675000Y-35941000D03*
D22*
X175387000Y-50038000D02*
X175387000Y-50038000D01*
X175387000Y-50038000D02*
X186309000Y-50038000D01*
D23*
X152520000Y-27350000D02*
X154385000Y-27350000D01*
X168520000Y-27350000D02*
X170385000Y-27350000D01*
X216520000Y-27350000D02*
X218385000Y-27350000D01*
X232520000Y-27350000D02*
X234385000Y-27350000D01*
X152520000Y-43350000D02*
X154385000Y-43350000D01*
X168520000Y-43350000D02*
X170385000Y-43350000D01*
X184520000Y-43350000D02*
X186385000Y-43350000D01*
X200520000Y-43350000D02*
X202385000Y-43350000D01*
X216520000Y-43350000D02*
X218385000Y-43350000D01*
X232520000Y-43350000D02*
X234385000Y-43350000D01*
X152520000Y-59350000D02*
X154385000Y-59350000D01*
X168520000Y-59350000D02*
X170385000Y-59350000D01*
X184520000Y-59350000D02*
X186385000Y-59350000D01*
X200520000Y-59350000D02*
X202385000Y-59350000D01*
X216520000Y-59350000D02*
X218385000Y-59350000D01*
X232520000Y-59350000D02*
X234385000Y-59350000D01*
X152520000Y-75350000D02*
X154385000Y-75350000D01*
X184520000Y-75350000D02*
X186385000Y-75350000D01*
X216520000Y-75350000D02*
X218385000Y-75350000D01*
X232520000Y-75350000D02*
X234385000Y-75350000D01*
X152520000Y-91350000D02*
X154385000Y-91350000D01*
X168520000Y-91350000D02*
X170385000Y-91350000D01*
X184520000Y-91350000D02*
X186385000Y-91350000D01*
X200520000Y-91350000D02*
X202385000Y-91350000D01*
X216520000Y-91350000D02*
X218385000Y-91350000D01*
X232520000Y-91350000D02*
X234385000Y-91350000D01*
X152520000Y-107350000D02*
X154385000Y-107350000D01*
X168520000Y-107350000D02*
X170385000Y-107350000D01*
X184520000Y-107350000D02*
X186385000Y-107350000D01*
X200520000Y-107350000D02*
X202385000Y-107350000D01*
X216520000Y-107350000D02*
X218385000Y-107350000D01*
X232520000Y-107350000D02*
X234385000Y-107350000D01*
X152520000Y-123350000D02*
X154385000Y-123350000D01*
X168520000Y-123350000D02*
X170385000Y-123350000D01*
X184520000Y-123350000D02*
X186385000Y-123350000D01*
X200520000Y-123350000D02*
X202385000Y-123350000D01*
X216520000Y-123350000D02*
X218385000Y-123350000D01*
X232520000Y-123350000D02*
X234385000Y-123350000D01*
X135020000Y-27350000D02*
X134975000Y-27305000D01*
X136520000Y-27350000D02*
X135020000Y-27350000D01*
X134975000Y-27305000D02*
X134620000Y-27305000D01*
X136520000Y-43350000D02*
X134790000Y-43350000D01*
X134790000Y-43350000D02*
X134747000Y-43307000D01*
X135020000Y-59350000D02*
X134979000Y-59309000D01*
X136520000Y-59350000D02*
X135020000Y-59350000D01*
X134979000Y-59309000D02*
X134620000Y-59309000D01*
X135020000Y-75350000D02*
X134981000Y-75311000D01*
X136520000Y-75350000D02*
X135020000Y-75350000D01*
X134981000Y-75311000D02*
X134620000Y-75311000D01*
X135020000Y-91350000D02*
X134983000Y-91313000D01*
X136520000Y-91350000D02*
X135020000Y-91350000D01*
X134983000Y-91313000D02*
X134620000Y-91313000D01*
X135020000Y-107350000D02*
X134928000Y-107442000D01*
X136520000Y-107350000D02*
X135020000Y-107350000D01*
X134928000Y-107442000D02*
X134620000Y-107442000D01*
X135020000Y-123350000D02*
X134987000Y-123317000D01*
X136520000Y-123350000D02*
X135020000Y-123350000D01*
X134987000Y-123317000D02*
X134747000Y-123317000D01*
D24*
X163703000Y-128270000D02*
X164553000Y-128270000D01*
X164553000Y-128270000D02*
X165100000Y-128270000D01*
X165100000Y-128270000D02*
X166667000Y-128270000D01*
X159652000Y-134990000D02*
X158623000Y-133961000D01*
X158623000Y-133961000D02*
X158623000Y-133736000D01*
X161030000Y-134990000D02*
X159652000Y-134990000D01*
X157485004Y-133736000D02*
X157480004Y-133731000D01*
X158623000Y-133736000D02*
X157485004Y-133736000D01*
D23*
X167020000Y-75350000D02*
X166981000Y-75311000D01*
X168520000Y-75350000D02*
X167020000Y-75350000D01*
X166981000Y-75311000D02*
X166243000Y-75311000D01*
X202020000Y-75350000D02*
X202311000Y-75350000D01*
X202059000Y-75311000D02*
X202098000Y-75350000D01*
X200520000Y-75350000D02*
X202020000Y-75350000D01*
X202098000Y-75350000D02*
X202311000Y-75350000D01*
D24*
X165100000Y-129540000D02*
X165100000Y-129310000D01*
X166630000Y-129790000D02*
X165350000Y-129790000D01*
X165350000Y-129790000D02*
X165100000Y-129540000D01*
D23*
X202901006Y-27350000D02*
X202946006Y-27305000D01*
X200520000Y-27350000D02*
X202901006Y-27350000D01*
X186690000Y-28136315D02*
X186690000Y-28702000D01*
X186690000Y-28020000D02*
X186690000Y-28136315D01*
X186020000Y-27350000D02*
X186690000Y-28020000D01*
X184520000Y-27350000D02*
X186020000Y-27350000D01*
D24*
X168278998Y-135640000D02*
X168401998Y-135763000D01*
X166630000Y-135640000D02*
X168278998Y-135640000D01*
D25*
X173320000Y-107350000D02*
X173320000Y-108900000D01*
X175260000Y-110480000D02*
X158750000Y-110480000D01*
X158750000Y-110480000D02*
X142900000Y-110480000D01*
X207010000Y-110480000D02*
X191770000Y-110480000D01*
X157320000Y-107350000D02*
X157320000Y-108900000D01*
X173320000Y-108900000D02*
X174900000Y-110480000D01*
X191770000Y-110480000D02*
X175260000Y-110480000D01*
X205320000Y-107350000D02*
X205320000Y-108900000D01*
X189320000Y-108900000D02*
X190900000Y-110480000D01*
X174900000Y-110480000D02*
X175260000Y-110480000D01*
X222900000Y-110480000D02*
X223520000Y-110480000D01*
X221320000Y-108900000D02*
X222900000Y-110480000D01*
X175260000Y-110480000D02*
X158750000Y-110480000D01*
X158750000Y-110480000D02*
X142900000Y-110480000D01*
X207010000Y-110480000D02*
X191770000Y-110480000D01*
X157320000Y-107350000D02*
X157320000Y-108900000D01*
X222900000Y-110480000D02*
X223520000Y-110480000D01*
X221320000Y-107350000D02*
X221320000Y-108900000D01*
X173320000Y-107350000D02*
X173320000Y-108900000D01*
X142900000Y-110480000D02*
X141320000Y-108900000D01*
X223520000Y-110480000D02*
X206900000Y-110480000D01*
X221320000Y-107350000D02*
X221320000Y-108900000D01*
X141320000Y-108900000D02*
X141320000Y-107350000D01*
X158750000Y-110330000D02*
X158750000Y-110480000D01*
X157320000Y-108900000D02*
X158750000Y-110330000D01*
X223520000Y-110480000D02*
X206900000Y-110480000D01*
X189320000Y-107350000D02*
X189320000Y-108900000D01*
X206900000Y-110480000D02*
X207010000Y-110480000D01*
X190900000Y-110480000D02*
X191770000Y-110480000D01*
X221320000Y-108900000D02*
X222900000Y-110480000D01*
X205320000Y-108900000D02*
X206900000Y-110480000D01*
X205320000Y-108900000D02*
X206900000Y-110480000D01*
X141320000Y-108900000D02*
X141320000Y-107350000D01*
X142900000Y-110480000D02*
X141320000Y-108900000D01*
X206900000Y-110480000D02*
X207010000Y-110480000D01*
X158750000Y-110330000D02*
X158750000Y-110480000D01*
X157320000Y-108900000D02*
X158750000Y-110330000D01*
X190900000Y-110480000D02*
X191770000Y-110480000D01*
X189320000Y-107350000D02*
X189320000Y-108900000D01*
X191770000Y-110480000D02*
X175260000Y-110480000D01*
X205320000Y-107350000D02*
X205320000Y-108900000D01*
X189320000Y-108900000D02*
X190900000Y-110480000D01*
X174900000Y-110480000D02*
X175260000Y-110480000D01*
X173320000Y-108900000D02*
X174900000Y-110480000D01*
X173320000Y-91350000D02*
X173320000Y-92900000D01*
X175260000Y-94480000D02*
X158750000Y-94480000D01*
X158750000Y-94480000D02*
X142900000Y-94480000D01*
X207010000Y-94480000D02*
X191770000Y-94480000D01*
X157320000Y-91350000D02*
X157320000Y-92900000D01*
X173320000Y-92900000D02*
X174900000Y-94480000D01*
X191770000Y-94480000D02*
X175260000Y-94480000D01*
X205320000Y-91350000D02*
X205320000Y-92900000D01*
X189320000Y-92900000D02*
X190900000Y-94480000D01*
X174900000Y-94480000D02*
X175260000Y-94480000D01*
X222900000Y-94480000D02*
X223520000Y-94480000D01*
X221320000Y-92900000D02*
X222900000Y-94480000D01*
X175260000Y-94480000D02*
X158750000Y-94480000D01*
X158750000Y-94480000D02*
X142900000Y-94480000D01*
X207010000Y-94480000D02*
X191770000Y-94480000D01*
X157320000Y-91350000D02*
X157320000Y-92900000D01*
X222900000Y-94480000D02*
X223520000Y-94480000D01*
X221320000Y-91350000D02*
X221320000Y-92900000D01*
X173320000Y-91350000D02*
X173320000Y-92900000D01*
X142900000Y-94480000D02*
X141320000Y-92900000D01*
X223520000Y-94480000D02*
X206900000Y-94480000D01*
X221320000Y-91350000D02*
X221320000Y-92900000D01*
X141320000Y-92900000D02*
X141320000Y-91350000D01*
X158750000Y-94330000D02*
X158750000Y-94480000D01*
X157320000Y-92900000D02*
X158750000Y-94330000D01*
X223520000Y-94480000D02*
X206900000Y-94480000D01*
X189320000Y-91350000D02*
X189320000Y-92900000D01*
X206900000Y-94480000D02*
X207010000Y-94480000D01*
X190900000Y-94480000D02*
X191770000Y-94480000D01*
X221320000Y-92900000D02*
X222900000Y-94480000D01*
X205320000Y-92900000D02*
X206900000Y-94480000D01*
X205320000Y-92900000D02*
X206900000Y-94480000D01*
X141320000Y-92900000D02*
X141320000Y-91350000D01*
X142900000Y-94480000D02*
X141320000Y-92900000D01*
X206900000Y-94480000D02*
X207010000Y-94480000D01*
X158750000Y-94330000D02*
X158750000Y-94480000D01*
X157320000Y-92900000D02*
X158750000Y-94330000D01*
X190900000Y-94480000D02*
X191770000Y-94480000D01*
X189320000Y-91350000D02*
X189320000Y-92900000D01*
X191770000Y-94480000D02*
X175260000Y-94480000D01*
X205320000Y-91350000D02*
X205320000Y-92900000D01*
X189320000Y-92900000D02*
X190900000Y-94480000D01*
X174900000Y-94480000D02*
X175260000Y-94480000D01*
X173320000Y-92900000D02*
X174900000Y-94480000D01*
X173320000Y-75350000D02*
X173320000Y-76900000D01*
X175260000Y-78480000D02*
X158750000Y-78480000D01*
X158750000Y-78480000D02*
X142900000Y-78480000D01*
X207010000Y-78480000D02*
X191770000Y-78480000D01*
X157320000Y-75350000D02*
X157320000Y-76900000D01*
X173320000Y-76900000D02*
X174900000Y-78480000D01*
X191770000Y-78480000D02*
X175260000Y-78480000D01*
X205320000Y-75350000D02*
X205320000Y-76900000D01*
X189320000Y-76900000D02*
X190900000Y-78480000D01*
X174900000Y-78480000D02*
X175260000Y-78480000D01*
X222900000Y-78480000D02*
X223520000Y-78480000D01*
X221320000Y-76900000D02*
X222900000Y-78480000D01*
X175260000Y-78480000D02*
X158750000Y-78480000D01*
X158750000Y-78480000D02*
X142900000Y-78480000D01*
X207010000Y-78480000D02*
X191770000Y-78480000D01*
X157320000Y-75350000D02*
X157320000Y-76900000D01*
X222900000Y-78480000D02*
X223520000Y-78480000D01*
X221320000Y-75350000D02*
X221320000Y-76900000D01*
X173320000Y-75350000D02*
X173320000Y-76900000D01*
X142900000Y-78480000D02*
X141320000Y-76900000D01*
X223520000Y-78480000D02*
X206900000Y-78480000D01*
X221320000Y-75350000D02*
X221320000Y-76900000D01*
X141320000Y-76900000D02*
X141320000Y-75350000D01*
X158750000Y-78330000D02*
X158750000Y-78480000D01*
X157320000Y-76900000D02*
X158750000Y-78330000D01*
X223520000Y-78480000D02*
X206900000Y-78480000D01*
X189320000Y-75350000D02*
X189320000Y-76900000D01*
X206900000Y-78480000D02*
X207010000Y-78480000D01*
X190900000Y-78480000D02*
X191770000Y-78480000D01*
X221320000Y-76900000D02*
X222900000Y-78480000D01*
X205320000Y-76900000D02*
X206900000Y-78480000D01*
X205320000Y-76900000D02*
X206900000Y-78480000D01*
X141320000Y-76900000D02*
X141320000Y-75350000D01*
X142900000Y-78480000D02*
X141320000Y-76900000D01*
X206900000Y-78480000D02*
X207010000Y-78480000D01*
X158750000Y-78330000D02*
X158750000Y-78480000D01*
X157320000Y-76900000D02*
X158750000Y-78330000D01*
X190900000Y-78480000D02*
X191770000Y-78480000D01*
X189320000Y-75350000D02*
X189320000Y-76900000D01*
X191770000Y-78480000D02*
X175260000Y-78480000D01*
X205320000Y-75350000D02*
X205320000Y-76900000D01*
X189320000Y-76900000D02*
X190900000Y-78480000D01*
X174900000Y-78480000D02*
X175260000Y-78480000D01*
X173320000Y-76900000D02*
X174900000Y-78480000D01*
X173320000Y-59350000D02*
X173320000Y-60900000D01*
X175260000Y-62480000D02*
X158750000Y-62480000D01*
X158750000Y-62480000D02*
X142900000Y-62480000D01*
X207010000Y-62480000D02*
X191770000Y-62480000D01*
X157320000Y-59350000D02*
X157320000Y-60900000D01*
X173320000Y-60900000D02*
X174900000Y-62480000D01*
X191770000Y-62480000D02*
X175260000Y-62480000D01*
X205320000Y-59350000D02*
X205320000Y-60900000D01*
X189320000Y-60900000D02*
X190900000Y-62480000D01*
X174900000Y-62480000D02*
X175260000Y-62480000D01*
X222900000Y-62480000D02*
X223520000Y-62480000D01*
X221320000Y-60900000D02*
X222900000Y-62480000D01*
X175260000Y-62480000D02*
X158750000Y-62480000D01*
X158750000Y-62480000D02*
X142900000Y-62480000D01*
X207010000Y-62480000D02*
X191770000Y-62480000D01*
X157320000Y-59350000D02*
X157320000Y-60900000D01*
X222900000Y-62480000D02*
X223520000Y-62480000D01*
X221320000Y-59350000D02*
X221320000Y-60900000D01*
X173320000Y-59350000D02*
X173320000Y-60900000D01*
X142900000Y-62480000D02*
X141320000Y-60900000D01*
X223520000Y-62480000D02*
X206900000Y-62480000D01*
X221320000Y-59350000D02*
X221320000Y-60900000D01*
X141320000Y-60900000D02*
X141320000Y-59350000D01*
X158750000Y-62330000D02*
X158750000Y-62480000D01*
X157320000Y-60900000D02*
X158750000Y-62330000D01*
X223520000Y-62480000D02*
X206900000Y-62480000D01*
X189320000Y-59350000D02*
X189320000Y-60900000D01*
X206900000Y-62480000D02*
X207010000Y-62480000D01*
X190900000Y-62480000D02*
X191770000Y-62480000D01*
X221320000Y-60900000D02*
X222900000Y-62480000D01*
X205320000Y-60900000D02*
X206900000Y-62480000D01*
X205320000Y-60900000D02*
X206900000Y-62480000D01*
X141320000Y-60900000D02*
X141320000Y-59350000D01*
X142900000Y-62480000D02*
X141320000Y-60900000D01*
X206900000Y-62480000D02*
X207010000Y-62480000D01*
X158750000Y-62330000D02*
X158750000Y-62480000D01*
X157320000Y-60900000D02*
X158750000Y-62330000D01*
X190900000Y-62480000D02*
X191770000Y-62480000D01*
X189320000Y-59350000D02*
X189320000Y-60900000D01*
X191770000Y-62480000D02*
X175260000Y-62480000D01*
X205320000Y-59350000D02*
X205320000Y-60900000D01*
X189320000Y-60900000D02*
X190900000Y-62480000D01*
X174900000Y-62480000D02*
X175260000Y-62480000D01*
X173320000Y-60900000D02*
X174900000Y-62480000D01*
X173320000Y-43350000D02*
X173320000Y-44900000D01*
X157320000Y-43350000D02*
X157320000Y-44900000D01*
X173320000Y-44900000D02*
X174900000Y-46480000D01*
X205320000Y-43350000D02*
X205320000Y-44900000D01*
X189320000Y-44900000D02*
X190900000Y-46480000D01*
X174900000Y-46480000D02*
X175260000Y-46480000D01*
X222900000Y-46480000D02*
X223520000Y-46480000D01*
X221320000Y-44900000D02*
X222900000Y-46480000D01*
D22*
X175260000Y-46480000D02*
X158750000Y-46480000D01*
X158750000Y-46480000D02*
X142900000Y-46480000D01*
X207010000Y-46480000D02*
X191770000Y-46480000D01*
D25*
X157320000Y-43350000D02*
X157320000Y-44900000D01*
X222900000Y-46480000D02*
X223520000Y-46480000D01*
X221320000Y-43350000D02*
X221320000Y-44900000D01*
X173320000Y-43350000D02*
X173320000Y-44900000D01*
X142900000Y-46480000D02*
X141320000Y-44900000D01*
X221320000Y-43350000D02*
X221320000Y-44900000D01*
X141320000Y-44900000D02*
X141320000Y-43350000D01*
X158750000Y-46330000D02*
X158750000Y-46480000D01*
X157320000Y-44900000D02*
X158750000Y-46330000D01*
X189320000Y-43350000D02*
X189320000Y-44900000D01*
X206900000Y-46480000D02*
X207010000Y-46480000D01*
X190900000Y-46480000D02*
X191770000Y-46480000D01*
X221320000Y-44900000D02*
X222900000Y-46480000D01*
X205320000Y-44900000D02*
X206900000Y-46480000D01*
X205320000Y-44900000D02*
X206900000Y-46480000D01*
X141320000Y-44900000D02*
X141320000Y-43350000D01*
X142900000Y-46480000D02*
X141320000Y-44900000D01*
X206900000Y-46480000D02*
X207010000Y-46480000D01*
X158750000Y-46330000D02*
X158750000Y-46480000D01*
X157320000Y-44900000D02*
X158750000Y-46330000D01*
X190900000Y-46480000D02*
X191770000Y-46480000D01*
X189320000Y-43350000D02*
X189320000Y-44900000D01*
D22*
X191770000Y-46480000D02*
X175260000Y-46480000D01*
D25*
X205320000Y-43350000D02*
X205320000Y-44900000D01*
X189320000Y-44900000D02*
X190900000Y-46480000D01*
X174900000Y-46480000D02*
X175260000Y-46480000D01*
X173320000Y-44900000D02*
X174900000Y-46480000D01*
X173320000Y-27350000D02*
X173320000Y-28900000D01*
X175260000Y-30480000D02*
X158750000Y-30480000D01*
X207010000Y-30480000D02*
X191770000Y-30480000D01*
X157320000Y-27350000D02*
X157320000Y-28900000D01*
X222900000Y-30480000D02*
X223520000Y-30480000D01*
X221320000Y-28900000D02*
X222900000Y-30480000D01*
X221320000Y-27350000D02*
X221320000Y-28900000D01*
X223520000Y-30480000D02*
X206900000Y-30480000D01*
X205320000Y-28900000D02*
X206900000Y-30480000D01*
X206900000Y-30480000D02*
X207010000Y-30480000D01*
X158750000Y-30330000D02*
X158750000Y-30480000D01*
X157320000Y-28900000D02*
X158750000Y-30330000D01*
X190900000Y-30480000D02*
X191770000Y-30480000D01*
X189320000Y-27350000D02*
X189320000Y-28900000D01*
X191770000Y-30480000D02*
X175260000Y-30480000D01*
X205320000Y-27350000D02*
X205320000Y-28900000D01*
X189320000Y-28900000D02*
X190900000Y-30480000D01*
X174900000Y-30480000D02*
X175260000Y-30480000D01*
X173320000Y-28900000D02*
X174900000Y-30480000D01*
X157320000Y-28900000D02*
X158750000Y-30330000D01*
X158750000Y-30330000D02*
X158750000Y-30480000D01*
X157320000Y-27350000D02*
X157320000Y-28900000D01*
X174900000Y-30480000D02*
X175260000Y-30480000D01*
X173320000Y-28900000D02*
X174900000Y-30480000D01*
X173320000Y-27350000D02*
X173320000Y-28900000D01*
X175260000Y-30480000D02*
X158750000Y-30480000D01*
X190900000Y-30480000D02*
X191770000Y-30480000D01*
X189320000Y-28900000D02*
X190900000Y-30480000D01*
X189320000Y-27350000D02*
X189320000Y-28900000D01*
X191770000Y-30480000D02*
X175260000Y-30480000D01*
X206900000Y-30480000D02*
X207010000Y-30480000D01*
X205320000Y-28900000D02*
X206900000Y-30480000D01*
X205320000Y-27350000D02*
X205320000Y-28900000D01*
X207010000Y-30480000D02*
X191770000Y-30480000D01*
X222900000Y-30480000D02*
X223520000Y-30480000D01*
X221320000Y-27350000D02*
X221320000Y-28900000D01*
X221320000Y-28900000D02*
X222900000Y-30480000D01*
X223520000Y-30480000D02*
X206900000Y-30480000D01*
X241310000Y-110480000D02*
X241427000Y-110363000D01*
X223520000Y-110480000D02*
X241310000Y-110480000D01*
X238783000Y-110363000D02*
X241427000Y-110363000D01*
X237320000Y-108900000D02*
X238783000Y-110363000D01*
X237320000Y-107350000D02*
X237320000Y-108900000D01*
X241054000Y-94480000D02*
X241427000Y-94107000D01*
D22*
X241427000Y-94107000D02*
X241427000Y-110363000D01*
D25*
X238908000Y-94488000D02*
X239141000Y-94488000D01*
X237320000Y-91350000D02*
X237320000Y-92900000D01*
X237320000Y-92900000D02*
X238908000Y-94488000D01*
X223520000Y-94480000D02*
X239141000Y-94488000D01*
X239141000Y-94488000D02*
X241054000Y-94480000D01*
X241421000Y-78480000D02*
X241427000Y-78486000D01*
X223520000Y-78480000D02*
X241421000Y-78480000D01*
X238906000Y-78486000D02*
X241427000Y-78486000D01*
X237320000Y-76900000D02*
X238906000Y-78486000D01*
X237320000Y-75350000D02*
X237320000Y-76900000D01*
X241042000Y-62480000D02*
X241427000Y-62865000D01*
D22*
X241427000Y-62865000D02*
X241427000Y-78486000D01*
D25*
X237320000Y-60900000D02*
X238904000Y-62484000D01*
X238904000Y-62484000D02*
X239903000Y-62484000D01*
X237320000Y-59350000D02*
X237320000Y-60900000D01*
X223520000Y-62480000D02*
X239903000Y-62484000D01*
X239903000Y-62484000D02*
X241042000Y-62480000D01*
X241425000Y-46480000D02*
X241427000Y-46482000D01*
D22*
X223520000Y-46480000D02*
X241425000Y-46480000D01*
X241427000Y-46482000D02*
X241427000Y-62865000D01*
D25*
X237320000Y-44900000D02*
X238902000Y-46482000D01*
X238902000Y-46482000D02*
X241427000Y-46482000D01*
X237320000Y-43350000D02*
X237320000Y-44900000D01*
D22*
X241427000Y-78486000D02*
X241427000Y-83820000D01*
X241427000Y-83820000D02*
X241427000Y-94107000D01*
D25*
X238900000Y-30480000D02*
X239014000Y-30480000D01*
X237320000Y-27350000D02*
X237320000Y-28900000D01*
X237320000Y-28900000D02*
X238900000Y-30480000D01*
D22*
X241427000Y-33274000D02*
X241427000Y-46482000D01*
X238633000Y-30480000D02*
X241427000Y-33274000D01*
D25*
X223520000Y-30480000D02*
X238633000Y-30480000D01*
D22*
X223520000Y-46480000D02*
X206900000Y-46480000D01*
D25*
X143320000Y-27350000D02*
X141320000Y-27350000D01*
X158750000Y-30480000D02*
X146450000Y-30480000D01*
X146450000Y-30480000D02*
X143320000Y-27350000D01*
X144081000Y-126111000D02*
X141424001Y-123454001D01*
D22*
X241427000Y-110363000D02*
X241427000Y-124079000D01*
X241427000Y-124079000D02*
X239395000Y-126111000D01*
D25*
X157320000Y-124900000D02*
X157861000Y-125441000D01*
X157320000Y-123350000D02*
X157320000Y-124900000D01*
X157861000Y-125441000D02*
X157861000Y-126111000D01*
X173736000Y-125316000D02*
X173736000Y-126111000D01*
X173320000Y-123350000D02*
X173320000Y-124900000D01*
X173320000Y-124900000D02*
X173736000Y-125316000D01*
D22*
X173736000Y-126111000D02*
X157861000Y-126111000D01*
D25*
X190119000Y-125699000D02*
X190119000Y-126111000D01*
X189320000Y-124900000D02*
X190119000Y-125699000D01*
X189320000Y-123350000D02*
X189320000Y-124900000D01*
X205320000Y-124900000D02*
X206531000Y-126111000D01*
X205320000Y-123350000D02*
X205320000Y-124900000D01*
X206531000Y-126111000D02*
X206629000Y-126111000D01*
D22*
X206629000Y-126111000D02*
X190119000Y-126111000D01*
D25*
X221320000Y-124900000D02*
X222531000Y-126111000D01*
X222531000Y-126111000D02*
X222758000Y-126111000D01*
X221320000Y-123350000D02*
X221320000Y-124900000D01*
X238125000Y-125705000D02*
X238125000Y-126111000D01*
X237320000Y-124900000D02*
X238125000Y-125705000D01*
X237320000Y-123350000D02*
X237320000Y-124900000D01*
D22*
X239395000Y-126111000D02*
X238125000Y-126111000D01*
X238125000Y-126111000D02*
X222758000Y-126111000D01*
X157861000Y-126111000D02*
X150749000Y-126111000D01*
X150749000Y-126111000D02*
X144081000Y-126111000D01*
D24*
X158623000Y-135636000D02*
X150495000Y-135636000D01*
X161026000Y-135636000D02*
X161030000Y-135640000D01*
X158623000Y-135636000D02*
X161026000Y-135636000D01*
D23*
X212979000Y-126238000D02*
X212852000Y-126111000D01*
X212979000Y-137160000D02*
X212979000Y-126238000D01*
D22*
X222758000Y-126111000D02*
X212852000Y-126111000D01*
X212852000Y-126111000D02*
X206629000Y-126111000D01*
D25*
X150495000Y-126365000D02*
X150749000Y-126111000D01*
X150495000Y-139700000D02*
X150495000Y-126365000D01*
D23*
X183515000Y-130896000D02*
X183515000Y-126111000D01*
X183515000Y-131996000D02*
X183515000Y-130896000D01*
D22*
X173736000Y-126111000D02*
X183515000Y-126111000D01*
X183515000Y-126111000D02*
X190119000Y-126111000D01*
D24*
X180125001Y-138850001D02*
X180975000Y-139700000D01*
X177927000Y-136652000D02*
X180125001Y-138850001D01*
X165608000Y-136652000D02*
X177927000Y-136652000D01*
X165080055Y-133830160D02*
X165080055Y-136124055D01*
X165080055Y-136124055D02*
X165608000Y-136652000D01*
X161030000Y-131090000D02*
X162339895Y-131090000D01*
X162339895Y-131090000D02*
X165080055Y-133830160D01*
X164576044Y-136332823D02*
X165403221Y-137160000D01*
X177585001Y-138850001D02*
X178435000Y-139700000D01*
X175895000Y-137160000D02*
X177585001Y-138850001D01*
X164576044Y-134038928D02*
X164576044Y-136332823D01*
X165403221Y-137160000D02*
X175895000Y-137160000D01*
X162277116Y-131740000D02*
X164576044Y-134038928D01*
X161030000Y-131740000D02*
X162277116Y-131740000D01*
X165198442Y-137668000D02*
X164072033Y-136541591D01*
X164072033Y-134247696D02*
X162214336Y-132390000D01*
X162080000Y-132390000D02*
X161030000Y-132390000D01*
X175895000Y-139700000D02*
X173863000Y-137668000D01*
X164072033Y-136541591D02*
X164072033Y-134247696D01*
X162214336Y-132390000D02*
X162080000Y-132390000D01*
X173863000Y-137668000D02*
X165198442Y-137668000D01*
X163568022Y-136750359D02*
X164993663Y-138176000D01*
X163568022Y-134456464D02*
X163568022Y-136750359D01*
X172505001Y-138850001D02*
X173355000Y-139700000D01*
X161030000Y-133040000D02*
X162151557Y-133040000D01*
X162151557Y-133040000D02*
X163568022Y-134456464D01*
X171831000Y-138176000D02*
X172505001Y-138850001D01*
X164993663Y-138176000D02*
X171831000Y-138176000D01*
X162088779Y-133690000D02*
X163064011Y-134665232D01*
X161504999Y-138850001D02*
X160655000Y-139700000D01*
X163064011Y-137290989D02*
X161504999Y-138850001D01*
X163064011Y-134665232D02*
X163064011Y-137290989D01*
X161030000Y-133690000D02*
X162088779Y-133690000D01*
X157099000Y-138176000D02*
X156424999Y-138850001D01*
X162026000Y-134340000D02*
X162560000Y-134874000D01*
X161030000Y-134340000D02*
X162026000Y-134340000D01*
X162560000Y-134874000D02*
X162560000Y-137033000D01*
X162560000Y-137033000D02*
X161417000Y-138176000D01*
X156424999Y-138850001D02*
X155575000Y-139700000D01*
X161417000Y-138176000D02*
X157099000Y-138176000D01*
D23*
X155535000Y-142200000D02*
X153035000Y-139700000D01*
X215479000Y-142200000D02*
X155535000Y-142200000D01*
D24*
X168867000Y-128313000D02*
X168867000Y-128270000D01*
X167809001Y-130893201D02*
X167809001Y-129370999D01*
X166630000Y-131090000D02*
X167612202Y-131090000D01*
X167809001Y-129370999D02*
X168867000Y-128313000D01*
X167612202Y-131090000D02*
X167809001Y-130893201D01*
X166630000Y-130440000D02*
X163950000Y-130440000D01*
X161653000Y-128270000D02*
X161503000Y-128270000D01*
X163950000Y-130440000D02*
X163823000Y-130440000D01*
X163823000Y-130440000D02*
X161653000Y-128270000D01*
X191643000Y-28448000D02*
X191643000Y-28448010D01*
X193548000Y-26543000D02*
X191643000Y-28448000D01*
X142570000Y-25650000D02*
X152520000Y-25650000D01*
X141320000Y-25650000D02*
X142570000Y-25650000D01*
X142570000Y-23950000D02*
X152520000Y-23950000D01*
X141320000Y-23950000D02*
X142570000Y-23950000D01*
X135270000Y-23950000D02*
X136520000Y-23950000D01*
X133350000Y-25870000D02*
X135270000Y-23950000D01*
X134040000Y-39950000D02*
X136520000Y-39950000D01*
X133350000Y-40640000D02*
X134040000Y-39950000D01*
X133350000Y-40640000D02*
X133350000Y-25870000D01*
X134550000Y-55950000D02*
X136520000Y-55950000D01*
X133350000Y-57150000D02*
X134550000Y-55950000D01*
X133350000Y-57150000D02*
X133350000Y-40640000D01*
X135060000Y-71950000D02*
X136520000Y-71950000D01*
X133350000Y-73660000D02*
X135060000Y-71950000D01*
X135270000Y-119950000D02*
X136520000Y-119950000D01*
X133350000Y-118030000D02*
X135270000Y-119950000D01*
X134810000Y-103950000D02*
X136520000Y-103950000D01*
X133350000Y-105410000D02*
X134810000Y-103950000D01*
X133350000Y-105410000D02*
X133350000Y-118030000D01*
X134300000Y-87950000D02*
X136520000Y-87950000D01*
X133350000Y-88900000D02*
X134300000Y-87950000D01*
X133350000Y-88900000D02*
X133350000Y-105410000D01*
X133350000Y-73660000D02*
X133350000Y-88900000D01*
X133350000Y-61087000D02*
X133350000Y-57150000D01*
X133350000Y-73660000D02*
X133350000Y-69977000D01*
X133350000Y-69977000D02*
X133350000Y-61087000D01*
X157320000Y-25650000D02*
X168520000Y-25650000D01*
X157320000Y-23950000D02*
X168520000Y-23950000D01*
X173320000Y-23950000D02*
X184520000Y-23950000D01*
X174570000Y-25650000D02*
X184520000Y-25650000D01*
X173320000Y-25650000D02*
X174570000Y-25650000D01*
X189320000Y-25650000D02*
X200520000Y-25650000D01*
X189320000Y-23950000D02*
X200520000Y-23950000D01*
X205320000Y-23950000D02*
X216520000Y-23950000D01*
X205320000Y-25650000D02*
X216520000Y-25650000D01*
X221320000Y-25650000D02*
X232520000Y-25650000D01*
X221320000Y-23950000D02*
X232520000Y-23950000D01*
X151270000Y-41650000D02*
X141320000Y-41650000D01*
X152520000Y-41650000D02*
X151270000Y-41650000D01*
X152520000Y-39950000D02*
X141320000Y-39950000D01*
X167270000Y-39950000D02*
X157320000Y-39950000D01*
X168520000Y-39950000D02*
X167270000Y-39950000D01*
X168520000Y-41650000D02*
X157320000Y-41650000D01*
X184520000Y-41650000D02*
X173320000Y-41650000D01*
X184520000Y-39950000D02*
X173320000Y-39950000D01*
X199270000Y-39950000D02*
X189320000Y-39950000D01*
X200520000Y-39950000D02*
X199270000Y-39950000D01*
X200520000Y-41650000D02*
X189320000Y-41650000D01*
X216520000Y-41650000D02*
X205320000Y-41650000D01*
X216520000Y-39950000D02*
X205320000Y-39950000D01*
X231270000Y-39950000D02*
X221320000Y-39950000D01*
X232520000Y-39950000D02*
X231270000Y-39950000D01*
X232520000Y-41650000D02*
X221320000Y-41650000D01*
X141320000Y-55950000D02*
X152520000Y-55950000D01*
X141320000Y-57650000D02*
X152520000Y-57650000D01*
X157320000Y-57650000D02*
X168520000Y-57650000D01*
X157320000Y-55950000D02*
X168520000Y-55950000D01*
X173320000Y-55950000D02*
X184520000Y-55950000D01*
X173320000Y-57650000D02*
X184520000Y-57650000D01*
X189320000Y-57650000D02*
X200520000Y-57650000D01*
X189320000Y-55950000D02*
X200520000Y-55950000D01*
X205320000Y-55950000D02*
X216520000Y-55950000D01*
X205320000Y-57650000D02*
X216520000Y-57650000D01*
X221320000Y-57650000D02*
X232520000Y-57650000D01*
X221320000Y-55950000D02*
X232520000Y-55950000D01*
X152520000Y-73650000D02*
X141320000Y-73650000D01*
X151270000Y-71950000D02*
X141320000Y-71950000D01*
X152520000Y-71950000D02*
X151270000Y-71950000D01*
X168520000Y-71950000D02*
X157320000Y-71950000D01*
X167270000Y-73650000D02*
X157320000Y-73650000D01*
X168520000Y-73650000D02*
X167270000Y-73650000D01*
X184520000Y-71950000D02*
X173320000Y-71950000D01*
X184520000Y-73650000D02*
X173320000Y-73650000D01*
X200520000Y-73650000D02*
X189320000Y-73650000D01*
X200520000Y-71950000D02*
X189320000Y-71950000D01*
X216520000Y-71950000D02*
X205320000Y-71950000D01*
X216520000Y-73650000D02*
X205320000Y-73650000D01*
X232520000Y-71950000D02*
X221320000Y-71950000D01*
X232520000Y-73650000D02*
X221320000Y-73650000D01*
X141320000Y-87950000D02*
X152520000Y-87950000D01*
X141320000Y-89650000D02*
X152520000Y-89650000D01*
X157320000Y-89650000D02*
X168520000Y-89650000D01*
X157320000Y-87950000D02*
X168520000Y-87950000D01*
X173320000Y-87950000D02*
X184520000Y-87950000D01*
X174570000Y-89650000D02*
X184520000Y-89650000D01*
X173320000Y-89650000D02*
X174570000Y-89650000D01*
X189320000Y-89650000D02*
X200520000Y-89650000D01*
X189320000Y-87950000D02*
X200520000Y-87950000D01*
X205320000Y-87950000D02*
X216520000Y-87950000D01*
X206570000Y-89650000D02*
X216520000Y-89650000D01*
X205320000Y-89650000D02*
X206570000Y-89650000D01*
X232520000Y-89650000D02*
X221320000Y-89650000D01*
X222570000Y-87950000D02*
X232520000Y-87950000D01*
X221320000Y-87950000D02*
X222570000Y-87950000D01*
X152520000Y-105650000D02*
X141320000Y-105650000D01*
X152520000Y-103950000D02*
X141320000Y-103950000D01*
X168520000Y-105650000D02*
X157320000Y-105650000D01*
X168520000Y-103950000D02*
X157320000Y-103950000D01*
X183270000Y-103950000D02*
X173320000Y-103950000D01*
X184520000Y-103950000D02*
X183270000Y-103950000D01*
X183270000Y-105650000D02*
X173320000Y-105650000D01*
X184520000Y-105650000D02*
X183270000Y-105650000D01*
X199270000Y-105650000D02*
X189320000Y-105650000D01*
X200520000Y-105650000D02*
X199270000Y-105650000D01*
X200520000Y-103950000D02*
X189320000Y-103950000D01*
X216520000Y-103950000D02*
X205320000Y-103950000D01*
X216520000Y-105650000D02*
X205320000Y-105650000D01*
X232520000Y-105650000D02*
X221320000Y-105650000D01*
X231270000Y-103950000D02*
X221320000Y-103950000D01*
X232520000Y-103950000D02*
X231270000Y-103950000D01*
X141320000Y-121650000D02*
X152520000Y-121650000D01*
X141320000Y-119950000D02*
X152520000Y-119950000D01*
X158570000Y-119950000D02*
X168520000Y-119950000D01*
X157320000Y-119950000D02*
X158570000Y-119950000D01*
X158570000Y-121650000D02*
X168520000Y-121650000D01*
X157320000Y-121650000D02*
X158570000Y-121650000D01*
X173320000Y-121650000D02*
X184520000Y-121650000D01*
X173320000Y-119950000D02*
X184520000Y-119950000D01*
X189320000Y-119950000D02*
X200520000Y-119950000D01*
X200520000Y-121650000D02*
X189320000Y-121650000D01*
X215270000Y-121650000D02*
X205320000Y-121650000D01*
X216520000Y-121650000D02*
X215270000Y-121650000D01*
X205320000Y-119950000D02*
X216520000Y-119950000D01*
X221320000Y-119950000D02*
X232520000Y-119950000D01*
X232520000Y-121650000D02*
X221320000Y-121650000D01*
X167891066Y-133690000D02*
X168155079Y-133425987D01*
X168979327Y-133477000D02*
X169545012Y-133477000D01*
X166630000Y-133690000D02*
X167891066Y-133690000D01*
X168155079Y-133425987D02*
X168928314Y-133425987D01*
X168928314Y-133425987D02*
X168979327Y-133477000D01*
X168004297Y-132390000D02*
X168585303Y-131808994D01*
X166630000Y-132390000D02*
X168004297Y-132390000D01*
X168979315Y-131808994D02*
X169545000Y-131808994D01*
X168585303Y-131808994D02*
X168979315Y-131808994D01*
X168393988Y-134340000D02*
X168529000Y-134204988D01*
X166630000Y-134340000D02*
X168393988Y-134340000D01*
X167680000Y-131740000D02*
X168483000Y-130937000D01*
X166630000Y-131740000D02*
X167680000Y-131740000D01*
X168483000Y-130937000D02*
X172027315Y-130937000D01*
X172027315Y-130937000D02*
X172593000Y-130937000D01*
X166630000Y-133040000D02*
X167680000Y-133040000D01*
X167798024Y-132921976D02*
X168185100Y-132921976D01*
X167680000Y-133040000D02*
X167798024Y-132921976D01*
X168185100Y-132921976D02*
X168519076Y-132588000D01*
X171138314Y-132588000D02*
X171703999Y-132588000D01*
X168519076Y-132588000D02*
X171138314Y-132588000D01*
X167680000Y-134990000D02*
X167686002Y-134983998D01*
X169268263Y-134983998D02*
X169416271Y-134835990D01*
X166630000Y-134990000D02*
X167680000Y-134990000D01*
X167686002Y-134983998D02*
X169268263Y-134983998D01*
X137770000Y-121650000D02*
X136520000Y-121650000D01*
X139065000Y-120355000D02*
X137770000Y-121650000D01*
X138289000Y-105650000D02*
X139065000Y-106426000D01*
X136520000Y-105650000D02*
X138289000Y-105650000D01*
X139065000Y-106426000D02*
X139065000Y-120355000D01*
X136520000Y-89650000D02*
X138418000Y-89650000D01*
X138418000Y-89650000D02*
X139065000Y-90297000D01*
X139065000Y-90297000D02*
X139065000Y-106426000D01*
X138420000Y-73650000D02*
X139065000Y-74295000D01*
X136520000Y-73650000D02*
X138420000Y-73650000D01*
X139065000Y-74295000D02*
X139065000Y-90297000D01*
X137770000Y-57650000D02*
X139048000Y-58928000D01*
X136520000Y-57650000D02*
X137770000Y-57650000D01*
X139048000Y-58928000D02*
X139065000Y-58928000D01*
X139065000Y-42945000D02*
X139065000Y-43053000D01*
X137770000Y-41650000D02*
X139065000Y-42945000D01*
X136520000Y-41650000D02*
X137770000Y-41650000D01*
X139065000Y-43053000D02*
X139065000Y-57023000D01*
X139065000Y-57023000D02*
X139065000Y-58928000D01*
X139065000Y-58928000D02*
X139065000Y-68707000D01*
X139065000Y-68707000D02*
X139065000Y-74295000D01*
X194818000Y-34798000D02*
X193675000Y-35941000D01*
X139446000Y-31496000D02*
X193548000Y-31496000D01*
X136520000Y-23950000D02*
X137770000Y-23950000D01*
X194818000Y-32766000D02*
X194818000Y-34798000D01*
X139065000Y-25245000D02*
X139065000Y-31115000D01*
X193548000Y-31496000D02*
X194818000Y-32766000D01*
X137770000Y-23950000D02*
X139065000Y-25245000D01*
X139065000Y-31115000D02*
X139446000Y-31496000D01*
X137770000Y-25650000D02*
X136520000Y-25650000D01*
X139065000Y-32004000D02*
X138430000Y-31369000D01*
X138430000Y-26310000D02*
X137770000Y-25650000D01*
X138430000Y-31369000D02*
X138430000Y-26310000D01*
X139065000Y-32131000D02*
X139065000Y-42945000D01*
X139192000Y-32004000D02*
X139065000Y-32131000D01*
X193815021Y-33121247D02*
X192697774Y-32004000D01*
X192697774Y-32004000D02*
X139192000Y-32004000D01*
D23*
X183515000Y-138497919D02*
X183515000Y-134196000D01*
X183515000Y-139700000D02*
X183515000Y-138497919D01*
M02*
