G04 #@! TF.GenerationSoftware,KiCad,Pcbnew,(5.1.5)-3*
G04 #@! TF.CreationDate,2020-03-22T16:58:59-07:00*
G04 #@! TF.ProjectId,ESP-BuildStatus-Light-Board,4553502d-4275-4696-9c64-537461747573,rev?*
G04 #@! TF.SameCoordinates,Original*
G04 #@! TF.FileFunction,Legend,Bot*
G04 #@! TF.FilePolarity,Positive*
%FSLAX46Y46*%
G04 Gerber Fmt 4.6, Leading zero omitted, Abs format (unit mm)*
G04 Created by KiCad (PCBNEW (5.1.5)-3) date 2020-03-22 16:58:59*
%MOMM*%
%LPD*%
G04 APERTURE LIST*
%ADD10C,0.050000*%
%ADD11C,0.100000*%
%ADD12C,0.120000*%
%ADD13C,0.150000*%
G04 APERTURE END LIST*
D10*
X130429000Y-144907000D02*
X130429000Y-18288000D01*
X243459000Y-144907000D02*
X130429000Y-144907000D01*
X243459000Y-18288000D02*
X243459000Y-144907000D01*
X130429000Y-18288000D02*
X243459000Y-18288000D01*
D11*
X198021517Y-50017932D02*
X197404156Y-50017932D01*
X198021517Y-48024738D02*
X198021517Y-50017932D01*
X197368878Y-48024738D02*
X198021517Y-48024738D01*
X197386517Y-52028765D02*
X197333600Y-45943349D01*
X195816656Y-52028765D02*
X197386517Y-52028765D01*
X195287489Y-51534876D02*
X195816656Y-52028765D01*
X193999850Y-51534876D02*
X195287489Y-51534876D01*
X193999850Y-46472515D02*
X193999850Y-51534876D01*
X195252211Y-46472515D02*
X193999850Y-46472515D01*
X195781378Y-45943349D02*
X195252211Y-46472515D01*
X197333600Y-45943349D02*
X195781378Y-45943349D01*
X183410350Y-52406188D02*
X183410350Y-46592451D01*
X190549931Y-52406188D02*
X183410350Y-52406188D01*
X190549931Y-46592451D02*
X190549931Y-52406188D01*
X183410350Y-46592451D02*
X190549931Y-46592451D01*
X197422480Y-45965181D02*
X197392686Y-52773524D01*
X199366026Y-45004285D02*
X197422480Y-45965181D01*
X199341078Y-22449193D02*
X199366026Y-45004285D01*
X199225482Y-21556425D02*
X199341078Y-22449193D01*
X198997122Y-20801387D02*
X199225482Y-21556425D01*
X198669595Y-20169540D02*
X198997122Y-20801387D01*
X198256503Y-19646342D02*
X198669595Y-20169540D01*
X197771445Y-19217257D02*
X198256503Y-19646342D01*
X197228018Y-18867742D02*
X197771445Y-19217257D01*
X196639824Y-18583259D02*
X197228018Y-18867742D01*
X196020460Y-18349266D02*
X196639824Y-18583259D01*
X176982547Y-18378024D02*
X196020460Y-18349266D01*
X176384750Y-18563690D02*
X176982547Y-18378024D01*
X175840560Y-18810623D02*
X176384750Y-18563690D01*
X175349488Y-19118259D02*
X175840560Y-18810623D01*
X174911047Y-19486048D02*
X175349488Y-19118259D01*
X174524747Y-19913423D02*
X174911047Y-19486048D01*
X174190099Y-20399833D02*
X174524747Y-19913423D01*
X173906616Y-20944714D02*
X174190099Y-20399833D01*
X173673805Y-21547507D02*
X173906616Y-20944714D01*
X173659807Y-52717658D02*
X173673805Y-21547507D01*
X182740603Y-52743736D02*
X173659807Y-52717658D01*
X182738627Y-51541483D02*
X182740603Y-52743736D01*
X191569849Y-51534795D02*
X182738627Y-51541483D01*
X191596180Y-52818228D02*
X191569849Y-51534795D01*
X197407472Y-52818228D02*
X191596180Y-52818228D01*
D12*
X213429000Y-143060000D02*
X214329000Y-143060000D01*
X212079000Y-141610000D02*
X213429000Y-143060000D01*
X212079000Y-138260000D02*
X212079000Y-141610000D01*
X218879000Y-141560000D02*
X218879000Y-138260000D01*
X217529000Y-143060000D02*
X218879000Y-141560000D01*
X216629000Y-143060000D02*
X217529000Y-143060000D01*
X212079000Y-135760000D02*
X212079000Y-136010000D01*
X212379000Y-135760000D02*
X212079000Y-135760000D01*
X212379000Y-135510000D02*
X212379000Y-135760000D01*
X213679000Y-135510000D02*
X212379000Y-135510000D01*
X213679000Y-135760000D02*
X213679000Y-135510000D01*
X217329000Y-135760000D02*
X213679000Y-135760000D01*
X217329000Y-135510000D02*
X217329000Y-135760000D01*
X218579000Y-135510000D02*
X217329000Y-135510000D01*
X218579000Y-135760000D02*
X218579000Y-135510000D01*
X218829000Y-135760000D02*
X218579000Y-135760000D01*
X218829000Y-136010000D02*
X218829000Y-135760000D01*
D13*
X237887000Y-142914000D02*
X233387000Y-142914000D01*
X239137000Y-138914000D02*
X239137000Y-140414000D01*
X233387000Y-136414000D02*
X237887000Y-136414000D01*
X232137000Y-140414000D02*
X232137000Y-138914000D01*
X186658095Y-54203380D02*
X186658095Y-55012904D01*
X186610476Y-55108142D01*
X186562857Y-55155761D01*
X186467619Y-55203380D01*
X186277142Y-55203380D01*
X186181904Y-55155761D01*
X186134285Y-55108142D01*
X186086666Y-55012904D01*
X186086666Y-54203380D01*
X185134285Y-54203380D02*
X185610476Y-54203380D01*
X185658095Y-54679571D01*
X185610476Y-54631952D01*
X185515238Y-54584333D01*
X185277142Y-54584333D01*
X185181904Y-54631952D01*
X185134285Y-54679571D01*
X185086666Y-54774809D01*
X185086666Y-55012904D01*
X185134285Y-55108142D01*
X185181904Y-55155761D01*
X185277142Y-55203380D01*
X185515238Y-55203380D01*
X185610476Y-55155761D01*
X185658095Y-55108142D01*
X184467619Y-54203380D02*
X184372380Y-54203380D01*
X184277142Y-54251000D01*
X184229523Y-54298619D01*
X184181904Y-54393857D01*
X184134285Y-54584333D01*
X184134285Y-54822428D01*
X184181904Y-55012904D01*
X184229523Y-55108142D01*
X184277142Y-55155761D01*
X184372380Y-55203380D01*
X184467619Y-55203380D01*
X184562857Y-55155761D01*
X184610476Y-55108142D01*
X184658095Y-55012904D01*
X184705714Y-54822428D01*
X184705714Y-54584333D01*
X184658095Y-54393857D01*
X184610476Y-54298619D01*
X184562857Y-54251000D01*
X184467619Y-54203380D01*
X193547142Y-19058142D02*
X192832857Y-22058142D01*
X192261428Y-19915285D01*
X191690000Y-22058142D01*
X190975714Y-19058142D01*
X188690000Y-21915285D02*
X188975714Y-22058142D01*
X189547142Y-22058142D01*
X189832857Y-21915285D01*
X189975714Y-21629571D01*
X189975714Y-20486714D01*
X189832857Y-20201000D01*
X189547142Y-20058142D01*
X188975714Y-20058142D01*
X188690000Y-20201000D01*
X188547142Y-20486714D01*
X188547142Y-20772428D01*
X189975714Y-21058142D01*
X187261428Y-22058142D02*
X187261428Y-19058142D01*
X186261428Y-21201000D01*
X185261428Y-19058142D01*
X185261428Y-22058142D01*
X183404285Y-22058142D02*
X183690000Y-21915285D01*
X183832857Y-21772428D01*
X183975714Y-21486714D01*
X183975714Y-20629571D01*
X183832857Y-20343857D01*
X183690000Y-20201000D01*
X183404285Y-20058142D01*
X182975714Y-20058142D01*
X182690000Y-20201000D01*
X182547142Y-20343857D01*
X182404285Y-20629571D01*
X182404285Y-21486714D01*
X182547142Y-21772428D01*
X182690000Y-21915285D01*
X182975714Y-22058142D01*
X183404285Y-22058142D01*
X181261428Y-21915285D02*
X180975714Y-22058142D01*
X180404285Y-22058142D01*
X180118571Y-21915285D01*
X179975714Y-21629571D01*
X179975714Y-21486714D01*
X180118571Y-21201000D01*
X180404285Y-21058142D01*
X180832857Y-21058142D01*
X181118571Y-20915285D01*
X181261428Y-20629571D01*
X181261428Y-20486714D01*
X181118571Y-20201000D01*
X180832857Y-20058142D01*
X180404285Y-20058142D01*
X180118571Y-20201000D01*
X210426619Y-140255238D02*
X210902809Y-140588571D01*
X210426619Y-140826666D02*
X211426619Y-140826666D01*
X211426619Y-140445714D01*
X211379000Y-140350476D01*
X211331380Y-140302857D01*
X211236142Y-140255238D01*
X211093285Y-140255238D01*
X210998047Y-140302857D01*
X210950428Y-140350476D01*
X210902809Y-140445714D01*
X210902809Y-140826666D01*
X211426619Y-139969523D02*
X210426619Y-139636190D01*
X211426619Y-139302857D01*
X210426619Y-138445714D02*
X210426619Y-139017142D01*
X210426619Y-138731428D02*
X211426619Y-138731428D01*
X211283761Y-138826666D01*
X211188523Y-138921904D01*
X211140904Y-139017142D01*
X236970333Y-135818761D02*
X236827476Y-135866380D01*
X236589380Y-135866380D01*
X236494142Y-135818761D01*
X236446523Y-135771142D01*
X236398904Y-135675904D01*
X236398904Y-135580666D01*
X236446523Y-135485428D01*
X236494142Y-135437809D01*
X236589380Y-135390190D01*
X236779857Y-135342571D01*
X236875095Y-135294952D01*
X236922714Y-135247333D01*
X236970333Y-135152095D01*
X236970333Y-135056857D01*
X236922714Y-134961619D01*
X236875095Y-134914000D01*
X236779857Y-134866380D01*
X236541761Y-134866380D01*
X236398904Y-134914000D01*
X236065571Y-134866380D02*
X235827476Y-135866380D01*
X235637000Y-135152095D01*
X235446523Y-135866380D01*
X235208428Y-134866380D01*
X234303666Y-135866380D02*
X234875095Y-135866380D01*
X234589380Y-135866380D02*
X234589380Y-134866380D01*
X234684619Y-135009238D01*
X234779857Y-135104476D01*
X234875095Y-135152095D01*
M02*
