M48
; DRILL file {KiCad (5.1.5)-3} date 2020-03-22 16:59:11
; FORMAT={-:-/ absolute / inch / decimal}
; #@! TF.CreationDate,2020-03-22T16:59:11-07:00
; #@! TF.GenerationSoftware,Kicad,Pcbnew,(5.1.5)-3
; #@! TF.FileFunction,Plated,1,2,PTH
FMAT,2
INCH
T1C0.0157
T2C0.0394
T3C0.0433
T4C0.0472
T5C0.0600
%
G90
G05
T1
X5.3Y-1.075
X5.3Y-2.335
X5.3Y-2.965
X5.3Y-3.595
X5.3Y-4.23
X5.305Y-1.705
X5.305Y-4.855
X6.0799Y-1.075
X6.0799Y-1.7049
X6.0799Y-2.3348
X6.0799Y-2.9648
X6.0799Y-3.5947
X6.0799Y-4.2246
X6.0799Y-4.8545
X6.2Y-5.265
X6.5Y-5.05
X6.5Y-5.1
X6.545Y-2.965
X6.63Y-5.345
X6.635Y-5.2837
X6.6699Y-5.3085
X6.675Y-5.1893
X6.675Y-5.255
X6.7098Y-1.075
X6.7098Y-1.7049
X6.7098Y-2.3348
X6.7098Y-3.5947
X6.7098Y-4.2246
X6.715Y-4.8545
X6.76Y-5.22
X6.795Y-5.155
X7.3398Y-1.7049
X7.3398Y-2.3348
X7.3398Y-2.9648
X7.3398Y-3.5947
X7.3398Y-4.2246
X7.3398Y-4.8545
X7.35Y-1.13
X7.545Y-1.12
X7.62Y-1.045
X7.625Y-1.415
X7.6305Y-1.304
X7.965Y-2.9665
X7.9697Y-2.3348
X7.9697Y-3.5947
X7.9697Y-4.2246
X7.9697Y-4.8545
X7.98Y-1.7049
X7.99Y-1.075
X8.5996Y-1.075
X8.5996Y-1.7049
X8.5996Y-2.3348
X8.5996Y-2.9648
X8.5996Y-3.5947
X8.5996Y-4.2246
X8.5996Y-4.8545
X9.2295Y-1.075
X9.2295Y-1.7049
X9.2295Y-2.3348
X9.2295Y-2.9648
X9.2295Y-3.5947
X9.2295Y-4.2246
X9.2295Y-4.8545
T2
X5.825Y-5.5
X5.925Y-5.5
X6.025Y-5.5
X6.125Y-5.5
X6.225Y-5.5
X6.325Y-5.5
X6.425Y-5.5
X6.525Y-5.5
X6.625Y-5.5
X6.725Y-5.5
X6.825Y-5.5
X6.925Y-5.5
X7.025Y-5.5
X7.125Y-5.5
X7.225Y-5.5
X7.325Y-5.5
T3
X9.1491Y-5.41
X9.1491Y-5.5872
X9.405Y-5.41
X9.405Y-5.5872
T4
X8.385Y-5.4
X8.4834Y-5.5984
X8.5819Y-5.4
T5
X6.905Y-1.83
X6.905Y-1.97
X7.335Y-1.97
T0
M30
