G04 #@! TF.GenerationSoftware,KiCad,Pcbnew,(5.1.5)-3*
G04 #@! TF.CreationDate,2020-03-22T16:58:52-07:00*
G04 #@! TF.ProjectId,ESP-BuildStatus-Light-Board,4553502d-4275-4696-9c64-537461747573,rev?*
G04 #@! TF.SameCoordinates,Original*
G04 #@! TF.FileFunction,Legend,Top*
G04 #@! TF.FilePolarity,Positive*
%FSLAX46Y46*%
G04 Gerber Fmt 4.6, Leading zero omitted, Abs format (unit mm)*
G04 Created by KiCad (PCBNEW (5.1.5)-3) date 2020-03-22 16:58:52*
%MOMM*%
%LPD*%
G04 APERTURE LIST*
%ADD10C,0.050000*%
%ADD11C,0.120000*%
%ADD12C,0.150000*%
%ADD13C,0.203200*%
%ADD14C,0.100000*%
%ADD15C,0.152400*%
G04 APERTURE END LIST*
D10*
X130429000Y-144907000D02*
X130429000Y-18288000D01*
X243459000Y-144907000D02*
X130429000Y-144907000D01*
X243459000Y-18288000D02*
X243459000Y-144907000D01*
X130429000Y-18288000D02*
X243459000Y-18288000D01*
D11*
X182835000Y-133596000D02*
X182835000Y-132596000D01*
X184195000Y-132596000D02*
X184195000Y-133596000D01*
X173420000Y-92350000D02*
X168420000Y-92350000D01*
X167320000Y-88050000D02*
X167320000Y-86950000D01*
X167320000Y-86950000D02*
X173420000Y-86950000D01*
X173420000Y-124350000D02*
X168420000Y-124350000D01*
X167320000Y-120050000D02*
X167320000Y-118950000D01*
X167320000Y-118950000D02*
X173420000Y-118950000D01*
D12*
X177700000Y-18761000D02*
X177700000Y-41621000D01*
X195480000Y-18761000D02*
X177700000Y-18761000D01*
X195480000Y-41621000D02*
X195480000Y-18761000D01*
X177700000Y-41621000D02*
X195480000Y-41621000D01*
X192940000Y-40351000D02*
X180240000Y-40351000D01*
X192940000Y-26381000D02*
X192940000Y-40351000D01*
X180240000Y-26381000D02*
X192940000Y-26381000D01*
X180240000Y-40351000D02*
X180240000Y-26381000D01*
D11*
X237420000Y-44350000D02*
X232420000Y-44350000D01*
X231320000Y-40050000D02*
X231320000Y-38950000D01*
X231320000Y-38950000D02*
X237420000Y-38950000D01*
X189420000Y-60350000D02*
X184420000Y-60350000D01*
X183320000Y-56050000D02*
X183320000Y-54950000D01*
X183320000Y-54950000D02*
X189420000Y-54950000D01*
X173420000Y-76350000D02*
X168420000Y-76350000D01*
X167320000Y-72050000D02*
X167320000Y-70950000D01*
X167320000Y-70950000D02*
X173420000Y-70950000D01*
X157420000Y-76350000D02*
X152420000Y-76350000D01*
X151320000Y-72050000D02*
X151320000Y-70950000D01*
X151320000Y-70950000D02*
X157420000Y-70950000D01*
X189420000Y-92350000D02*
X184420000Y-92350000D01*
X183320000Y-88050000D02*
X183320000Y-86950000D01*
X183320000Y-86950000D02*
X189420000Y-86950000D01*
X205420000Y-60350000D02*
X200420000Y-60350000D01*
X199320000Y-56050000D02*
X199320000Y-54950000D01*
X199320000Y-54950000D02*
X205420000Y-54950000D01*
X237420000Y-60350000D02*
X232420000Y-60350000D01*
X231320000Y-56050000D02*
X231320000Y-54950000D01*
X231320000Y-54950000D02*
X237420000Y-54950000D01*
X205420000Y-76350000D02*
X200420000Y-76350000D01*
X199320000Y-72050000D02*
X199320000Y-70950000D01*
X199320000Y-70950000D02*
X205420000Y-70950000D01*
X173420000Y-60350000D02*
X168420000Y-60350000D01*
X167320000Y-56050000D02*
X167320000Y-54950000D01*
X167320000Y-54950000D02*
X173420000Y-54950000D01*
X221420000Y-60350000D02*
X216420000Y-60350000D01*
X215320000Y-56050000D02*
X215320000Y-54950000D01*
X215320000Y-54950000D02*
X221420000Y-54950000D01*
X157420000Y-92350000D02*
X152420000Y-92350000D01*
X151320000Y-88050000D02*
X151320000Y-86950000D01*
X151320000Y-86950000D02*
X157420000Y-86950000D01*
X221420000Y-76350000D02*
X216420000Y-76350000D01*
X215320000Y-72050000D02*
X215320000Y-70950000D01*
X215320000Y-70950000D02*
X221420000Y-70950000D01*
X221420000Y-44350000D02*
X216420000Y-44350000D01*
X215320000Y-40050000D02*
X215320000Y-38950000D01*
X215320000Y-38950000D02*
X221420000Y-38950000D01*
X157420000Y-60350000D02*
X152420000Y-60350000D01*
X151320000Y-56050000D02*
X151320000Y-54950000D01*
X151320000Y-54950000D02*
X157420000Y-54950000D01*
X189420000Y-76350000D02*
X184420000Y-76350000D01*
X183320000Y-72050000D02*
X183320000Y-70950000D01*
X183320000Y-70950000D02*
X189420000Y-70950000D01*
X237420000Y-76350000D02*
X232420000Y-76350000D01*
X231320000Y-72050000D02*
X231320000Y-70950000D01*
X231320000Y-70950000D02*
X237420000Y-70950000D01*
X237420000Y-92350000D02*
X232420000Y-92350000D01*
X231320000Y-88050000D02*
X231320000Y-86950000D01*
X231320000Y-86950000D02*
X237420000Y-86950000D01*
X221420000Y-92350000D02*
X216420000Y-92350000D01*
X215320000Y-88050000D02*
X215320000Y-86950000D01*
X215320000Y-86950000D02*
X221420000Y-86950000D01*
X205420000Y-92350000D02*
X200420000Y-92350000D01*
X199320000Y-88050000D02*
X199320000Y-86950000D01*
X199320000Y-86950000D02*
X205420000Y-86950000D01*
X173420000Y-108350000D02*
X168420000Y-108350000D01*
X167320000Y-104050000D02*
X167320000Y-102950000D01*
X167320000Y-102950000D02*
X173420000Y-102950000D01*
X221420000Y-108350000D02*
X216420000Y-108350000D01*
X215320000Y-104050000D02*
X215320000Y-102950000D01*
X215320000Y-102950000D02*
X221420000Y-102950000D01*
X237420000Y-108350000D02*
X232420000Y-108350000D01*
X231320000Y-104050000D02*
X231320000Y-102950000D01*
X231320000Y-102950000D02*
X237420000Y-102950000D01*
X189420000Y-108350000D02*
X184420000Y-108350000D01*
X183320000Y-104050000D02*
X183320000Y-102950000D01*
X183320000Y-102950000D02*
X189420000Y-102950000D01*
X157420000Y-124350000D02*
X152420000Y-124350000D01*
X151320000Y-120050000D02*
X151320000Y-118950000D01*
X151320000Y-118950000D02*
X157420000Y-118950000D01*
X157420000Y-108350000D02*
X152420000Y-108350000D01*
X151320000Y-104050000D02*
X151320000Y-102950000D01*
X151320000Y-102950000D02*
X157420000Y-102950000D01*
X205420000Y-108350000D02*
X200420000Y-108350000D01*
X199320000Y-104050000D02*
X199320000Y-102950000D01*
X199320000Y-102950000D02*
X205420000Y-102950000D01*
X189420000Y-124350000D02*
X184420000Y-124350000D01*
X183320000Y-120050000D02*
X183320000Y-118950000D01*
X183320000Y-118950000D02*
X189420000Y-118950000D01*
X205420000Y-124350000D02*
X200420000Y-124350000D01*
X199320000Y-120050000D02*
X199320000Y-118950000D01*
X199320000Y-118950000D02*
X205420000Y-118950000D01*
X221420000Y-124350000D02*
X216420000Y-124350000D01*
X215320000Y-120050000D02*
X215320000Y-118950000D01*
X215320000Y-118950000D02*
X221420000Y-118950000D01*
X237420000Y-124350000D02*
X232420000Y-124350000D01*
X231320000Y-120050000D02*
X231320000Y-118950000D01*
X231320000Y-118950000D02*
X237420000Y-118950000D01*
X237420000Y-28350000D02*
X232420000Y-28350000D01*
X231320000Y-24050000D02*
X231320000Y-22950000D01*
X231320000Y-22950000D02*
X237420000Y-22950000D01*
X173420000Y-28350000D02*
X168420000Y-28350000D01*
X167320000Y-24050000D02*
X167320000Y-22950000D01*
X167320000Y-22950000D02*
X173420000Y-22950000D01*
X157420000Y-44350000D02*
X152420000Y-44350000D01*
X151320000Y-40050000D02*
X151320000Y-38950000D01*
X151320000Y-38950000D02*
X157420000Y-38950000D01*
X173420000Y-44350000D02*
X168420000Y-44350000D01*
X167320000Y-40050000D02*
X167320000Y-38950000D01*
X167320000Y-38950000D02*
X173420000Y-38950000D01*
X205420000Y-28350000D02*
X200420000Y-28350000D01*
X199320000Y-24050000D02*
X199320000Y-22950000D01*
X199320000Y-22950000D02*
X205420000Y-22950000D01*
X221420000Y-28350000D02*
X216420000Y-28350000D01*
X215320000Y-24050000D02*
X215320000Y-22950000D01*
X215320000Y-22950000D02*
X221420000Y-22950000D01*
X189420000Y-44350000D02*
X184420000Y-44350000D01*
X183320000Y-40050000D02*
X183320000Y-38950000D01*
X183320000Y-38950000D02*
X189420000Y-38950000D01*
X205420000Y-44350000D02*
X200420000Y-44350000D01*
X199320000Y-40050000D02*
X199320000Y-38950000D01*
X199320000Y-38950000D02*
X205420000Y-38950000D01*
X189420000Y-28350000D02*
X184420000Y-28350000D01*
X183320000Y-24050000D02*
X183320000Y-22950000D01*
X183320000Y-22950000D02*
X189420000Y-22950000D01*
X157420000Y-28350000D02*
X152420000Y-28350000D01*
X151320000Y-24050000D02*
X151320000Y-22950000D01*
X151320000Y-22950000D02*
X157420000Y-22950000D01*
X141420000Y-108350000D02*
X136420000Y-108350000D01*
X135320000Y-104050000D02*
X135320000Y-102950000D01*
X135320000Y-102950000D02*
X141420000Y-102950000D01*
X141420000Y-76350000D02*
X136420000Y-76350000D01*
X135320000Y-72050000D02*
X135320000Y-70950000D01*
X135320000Y-70950000D02*
X141420000Y-70950000D01*
X141420000Y-60350000D02*
X136420000Y-60350000D01*
X135320000Y-56050000D02*
X135320000Y-54950000D01*
X135320000Y-54950000D02*
X141420000Y-54950000D01*
X141420000Y-92350000D02*
X136420000Y-92350000D01*
X135320000Y-88050000D02*
X135320000Y-86950000D01*
X135320000Y-86950000D02*
X141420000Y-86950000D01*
X141420000Y-124350000D02*
X136420000Y-124350000D01*
X135320000Y-120050000D02*
X135320000Y-118950000D01*
X135320000Y-118950000D02*
X141420000Y-118950000D01*
X141420000Y-44350000D02*
X136420000Y-44350000D01*
X135320000Y-40050000D02*
X135320000Y-38950000D01*
X135320000Y-38950000D02*
X141420000Y-38950000D01*
X141420000Y-28350000D02*
X136420000Y-28350000D01*
X135320000Y-24050000D02*
X135320000Y-22950000D01*
X135320000Y-22950000D02*
X141420000Y-22950000D01*
X159223000Y-134336000D02*
X159223000Y-135036000D01*
X158023000Y-135036000D02*
X158023000Y-134336000D01*
X146685000Y-138430000D02*
X147955000Y-138430000D01*
X146685000Y-139700000D02*
X146685000Y-138430000D01*
X186435000Y-140730000D02*
X186435000Y-141160000D01*
X185675000Y-140730000D02*
X185675000Y-141160000D01*
X184785000Y-149790000D02*
X184785000Y-141160000D01*
X187385000Y-149790000D02*
X184785000Y-149790000D01*
X187385000Y-141160000D02*
X187385000Y-149790000D01*
X184785000Y-141160000D02*
X187385000Y-141160000D01*
X183895000Y-140730000D02*
X183895000Y-141160000D01*
X183135000Y-140730000D02*
X183135000Y-141160000D01*
X182245000Y-149790000D02*
X182245000Y-141160000D01*
X184785000Y-149790000D02*
X182245000Y-149790000D01*
X184785000Y-141160000D02*
X184785000Y-149790000D01*
X182245000Y-141160000D02*
X184785000Y-141160000D01*
X181355000Y-140730000D02*
X181355000Y-141160000D01*
X180595000Y-140730000D02*
X180595000Y-141160000D01*
X179705000Y-149790000D02*
X179705000Y-141160000D01*
X182245000Y-149790000D02*
X179705000Y-149790000D01*
X182245000Y-141160000D02*
X182245000Y-149790000D01*
X179705000Y-141160000D02*
X182245000Y-141160000D01*
X178815000Y-140730000D02*
X178815000Y-141160000D01*
X178055000Y-140730000D02*
X178055000Y-141160000D01*
X177165000Y-149790000D02*
X177165000Y-141160000D01*
X179705000Y-149790000D02*
X177165000Y-149790000D01*
X179705000Y-141160000D02*
X179705000Y-149790000D01*
X177165000Y-141160000D02*
X179705000Y-141160000D01*
X176275000Y-140730000D02*
X176275000Y-141160000D01*
X175515000Y-140730000D02*
X175515000Y-141160000D01*
X174625000Y-149790000D02*
X174625000Y-141160000D01*
X177165000Y-149790000D02*
X174625000Y-149790000D01*
X177165000Y-141160000D02*
X177165000Y-149790000D01*
X174625000Y-141160000D02*
X177165000Y-141160000D01*
X173735000Y-140730000D02*
X173735000Y-141160000D01*
X172975000Y-140730000D02*
X172975000Y-141160000D01*
X172085000Y-149790000D02*
X172085000Y-141160000D01*
X174625000Y-149790000D02*
X172085000Y-149790000D01*
X174625000Y-141160000D02*
X174625000Y-149790000D01*
X172085000Y-141160000D02*
X174625000Y-141160000D01*
X171195000Y-140730000D02*
X171195000Y-141160000D01*
X170435000Y-140730000D02*
X170435000Y-141160000D01*
X169545000Y-149790000D02*
X169545000Y-141160000D01*
X172085000Y-149790000D02*
X169545000Y-149790000D01*
X172085000Y-141160000D02*
X172085000Y-149790000D01*
X169545000Y-141160000D02*
X172085000Y-141160000D01*
X168655000Y-140730000D02*
X168655000Y-141160000D01*
X167895000Y-140730000D02*
X167895000Y-141160000D01*
X167005000Y-149790000D02*
X167005000Y-141160000D01*
X169545000Y-149790000D02*
X167005000Y-149790000D01*
X169545000Y-141160000D02*
X169545000Y-149790000D01*
X167005000Y-141160000D02*
X169545000Y-141160000D01*
X166115000Y-140730000D02*
X166115000Y-141160000D01*
X165355000Y-140730000D02*
X165355000Y-141160000D01*
X164465000Y-149790000D02*
X164465000Y-141160000D01*
X167005000Y-149790000D02*
X164465000Y-149790000D01*
X167005000Y-141160000D02*
X167005000Y-149790000D01*
X164465000Y-141160000D02*
X167005000Y-141160000D01*
X163575000Y-140730000D02*
X163575000Y-141160000D01*
X162815000Y-140730000D02*
X162815000Y-141160000D01*
X161925000Y-149790000D02*
X161925000Y-141160000D01*
X164465000Y-149790000D02*
X161925000Y-149790000D01*
X164465000Y-141160000D02*
X164465000Y-149790000D01*
X161925000Y-141160000D02*
X164465000Y-141160000D01*
X161035000Y-140730000D02*
X161035000Y-141160000D01*
X160275000Y-140730000D02*
X160275000Y-141160000D01*
X159385000Y-149790000D02*
X159385000Y-141160000D01*
X161925000Y-149790000D02*
X159385000Y-149790000D01*
X161925000Y-141160000D02*
X161925000Y-149790000D01*
X159385000Y-141160000D02*
X161925000Y-141160000D01*
X158495000Y-140730000D02*
X158495000Y-141160000D01*
X157735000Y-140730000D02*
X157735000Y-141160000D01*
X156845000Y-149790000D02*
X156845000Y-141160000D01*
X159385000Y-149790000D02*
X156845000Y-149790000D01*
X159385000Y-141160000D02*
X159385000Y-149790000D01*
X156845000Y-141160000D02*
X159385000Y-141160000D01*
X155955000Y-140730000D02*
X155955000Y-141160000D01*
X155195000Y-140730000D02*
X155195000Y-141160000D01*
X154305000Y-149790000D02*
X154305000Y-141160000D01*
X156845000Y-149790000D02*
X154305000Y-149790000D01*
X156845000Y-141160000D02*
X156845000Y-149790000D01*
X154305000Y-141160000D02*
X156845000Y-141160000D01*
X153415000Y-140730000D02*
X153415000Y-141160000D01*
X152655000Y-140730000D02*
X152655000Y-141160000D01*
X151765000Y-149790000D02*
X151765000Y-141160000D01*
X154305000Y-149790000D02*
X151765000Y-149790000D01*
X154305000Y-141160000D02*
X154305000Y-149790000D01*
X151765000Y-141160000D02*
X154305000Y-141160000D01*
X150875000Y-140730000D02*
X150875000Y-141160000D01*
X150115000Y-140730000D02*
X150115000Y-141160000D01*
X149225000Y-149790000D02*
X149225000Y-141160000D01*
X151765000Y-149790000D02*
X149225000Y-149790000D01*
X151765000Y-141160000D02*
X151765000Y-149790000D01*
X149225000Y-141160000D02*
X151765000Y-141160000D01*
X149325000Y-141160000D02*
X149325000Y-149790000D01*
X149205000Y-141160000D02*
X149205000Y-149790000D01*
X149085000Y-141160000D02*
X149085000Y-149790000D01*
X148965000Y-141160000D02*
X148965000Y-149790000D01*
X148845000Y-141160000D02*
X148845000Y-149790000D01*
X148725000Y-141160000D02*
X148725000Y-149790000D01*
X148605000Y-141160000D02*
X148605000Y-149790000D01*
X148485000Y-141160000D02*
X148485000Y-149790000D01*
X148365000Y-141160000D02*
X148365000Y-149790000D01*
X148245000Y-141160000D02*
X148245000Y-149790000D01*
X148125000Y-141160000D02*
X148125000Y-149790000D01*
X148005000Y-141160000D02*
X148005000Y-149790000D01*
X147885000Y-141160000D02*
X147885000Y-149790000D01*
X147765000Y-141160000D02*
X147765000Y-149790000D01*
X147645000Y-141160000D02*
X147645000Y-149790000D01*
X147525000Y-141160000D02*
X147525000Y-149790000D01*
X147405000Y-141160000D02*
X147405000Y-149790000D01*
X147285000Y-141160000D02*
X147285000Y-149790000D01*
X147165000Y-141160000D02*
X147165000Y-149790000D01*
X147045000Y-141160000D02*
X147045000Y-149790000D01*
X146925000Y-141160000D02*
X146925000Y-149790000D01*
X146805000Y-141160000D02*
X146805000Y-149790000D01*
X148335000Y-140730000D02*
X148335000Y-141160000D01*
X147575000Y-140730000D02*
X147575000Y-141160000D01*
X146625000Y-149790000D02*
X146625000Y-141160000D01*
X149225000Y-149790000D02*
X146625000Y-149790000D01*
X149225000Y-141160000D02*
X149225000Y-149790000D01*
X146625000Y-141160000D02*
X149225000Y-141160000D01*
X167267000Y-127590000D02*
X168267000Y-127590000D01*
X168267000Y-128950000D02*
X167267000Y-128950000D01*
X162103000Y-127590000D02*
X163103000Y-127590000D01*
X163103000Y-128950000D02*
X162103000Y-128950000D01*
D13*
X168230000Y-135715000D02*
G75*
G03X168230000Y-135715000I-200000J0D01*
G01*
X166030000Y-136115000D02*
X166030000Y-129315000D01*
X166030000Y-129315000D02*
X161630000Y-129315000D01*
X161630000Y-129315000D02*
X161630000Y-136115000D01*
X161630000Y-136115000D02*
X166030000Y-136115000D01*
D14*
X160280000Y-134890000D02*
X160280000Y-135090000D01*
X161780000Y-135090000D01*
X161780000Y-134890000D01*
X160280000Y-134890000D01*
X160280000Y-135540000D02*
X160280000Y-135740000D01*
X161780000Y-135740000D01*
X161780000Y-135540000D01*
X160280000Y-135540000D01*
X160280000Y-134240000D02*
X160280000Y-134440000D01*
X161780000Y-134440000D01*
X161780000Y-134240000D01*
X160280000Y-134240000D01*
X160280000Y-133590000D02*
X160280000Y-133790000D01*
X161780000Y-133790000D01*
X161780000Y-133590000D01*
X160280000Y-133590000D01*
X160280000Y-132940000D02*
X160280000Y-133140000D01*
X161780000Y-133140000D01*
X161780000Y-132940000D01*
X160280000Y-132940000D01*
X160280000Y-132290000D02*
X160280000Y-132490000D01*
X161780000Y-132490000D01*
X161780000Y-132290000D01*
X160280000Y-132290000D01*
X160280000Y-131640000D02*
X160280000Y-131840000D01*
X161780000Y-131840000D01*
X161780000Y-131640000D01*
X160280000Y-131640000D01*
X160280000Y-130990000D02*
X160280000Y-131190000D01*
X161780000Y-131190000D01*
X161780000Y-130990000D01*
X160280000Y-130990000D01*
X165880000Y-129690000D02*
X165880000Y-129890000D01*
X167380000Y-129890000D01*
X167380000Y-129690000D01*
X165880000Y-129690000D01*
X165880000Y-130340000D02*
X165880000Y-130540000D01*
X167380000Y-130540000D01*
X167380000Y-130340000D01*
X165880000Y-130340000D01*
X165880000Y-130990000D02*
X165880000Y-131190000D01*
X167380000Y-131190000D01*
X167380000Y-130990000D01*
X165880000Y-130990000D01*
X165880000Y-131640000D02*
X165880000Y-131840000D01*
X167380000Y-131840000D01*
X167380000Y-131640000D01*
X165880000Y-131640000D01*
X165880000Y-135540000D02*
X165880000Y-135740000D01*
X167380000Y-135740000D01*
X167380000Y-135540000D01*
X165880000Y-135540000D01*
X165880000Y-134890000D02*
X165880000Y-135090000D01*
X167380000Y-135090000D01*
X167380000Y-134890000D01*
X165880000Y-134890000D01*
X165880000Y-134240000D02*
X165880000Y-134440000D01*
X167380000Y-134440000D01*
X167380000Y-134240000D01*
X165880000Y-134240000D01*
X165880000Y-133590000D02*
X165880000Y-133790000D01*
X167380000Y-133790000D01*
X167380000Y-133590000D01*
X165880000Y-133590000D01*
X165880000Y-132940000D02*
X165880000Y-133140000D01*
X167380000Y-133140000D01*
X167380000Y-132940000D01*
X165880000Y-132940000D01*
X165880000Y-132290000D02*
X165880000Y-132490000D01*
X167380000Y-132490000D01*
X167380000Y-132290000D01*
X165880000Y-132290000D01*
X160280000Y-130340000D02*
X160280000Y-130540000D01*
X161780000Y-130540000D01*
X161780000Y-130340000D01*
X160280000Y-130340000D01*
X160280000Y-129690000D02*
X160280000Y-129890000D01*
X161780000Y-129890000D01*
X161780000Y-129690000D01*
X160280000Y-129690000D01*
D12*
X185417380Y-133262666D02*
X184941190Y-133596000D01*
X185417380Y-133834095D02*
X184417380Y-133834095D01*
X184417380Y-133453142D01*
X184465000Y-133357904D01*
X184512619Y-133310285D01*
X184607857Y-133262666D01*
X184750714Y-133262666D01*
X184845952Y-133310285D01*
X184893571Y-133357904D01*
X184941190Y-133453142D01*
X184941190Y-133834095D01*
X184417380Y-132929333D02*
X184417380Y-132310285D01*
X184798333Y-132643619D01*
X184798333Y-132500761D01*
X184845952Y-132405523D01*
X184893571Y-132357904D01*
X184988809Y-132310285D01*
X185226904Y-132310285D01*
X185322142Y-132357904D01*
X185369761Y-132405523D01*
X185417380Y-132500761D01*
X185417380Y-132786476D01*
X185369761Y-132881714D01*
X185322142Y-132929333D01*
X198056666Y-134255380D02*
X197723333Y-133779190D01*
X197485238Y-134255380D02*
X197485238Y-133255380D01*
X197866190Y-133255380D01*
X197961428Y-133303000D01*
X198009047Y-133350619D01*
X198056666Y-133445857D01*
X198056666Y-133588714D01*
X198009047Y-133683952D01*
X197961428Y-133731571D01*
X197866190Y-133779190D01*
X197485238Y-133779190D01*
X198485238Y-133731571D02*
X198818571Y-133731571D01*
X198961428Y-134255380D02*
X198485238Y-134255380D01*
X198485238Y-133255380D01*
X198961428Y-133255380D01*
X199723333Y-133731571D02*
X199390000Y-133731571D01*
X199390000Y-134255380D02*
X199390000Y-133255380D01*
X199866190Y-133255380D01*
X200390000Y-133255380D02*
X200390000Y-133493476D01*
X200151904Y-133398238D02*
X200390000Y-133493476D01*
X200628095Y-133398238D01*
X200247142Y-133683952D02*
X200390000Y-133493476D01*
X200532857Y-133683952D01*
X201151904Y-133255380D02*
X201151904Y-133493476D01*
X200913809Y-133398238D02*
X201151904Y-133493476D01*
X201390000Y-133398238D01*
X201009047Y-133683952D02*
X201151904Y-133493476D01*
X201294761Y-133683952D01*
X205930666Y-134382380D02*
X205597333Y-133906190D01*
X205359238Y-134382380D02*
X205359238Y-133382380D01*
X205740190Y-133382380D01*
X205835428Y-133430000D01*
X205883047Y-133477619D01*
X205930666Y-133572857D01*
X205930666Y-133715714D01*
X205883047Y-133810952D01*
X205835428Y-133858571D01*
X205740190Y-133906190D01*
X205359238Y-133906190D01*
X206359238Y-133858571D02*
X206692571Y-133858571D01*
X206835428Y-134382380D02*
X206359238Y-134382380D01*
X206359238Y-133382380D01*
X206835428Y-133382380D01*
X207597333Y-133858571D02*
X207264000Y-133858571D01*
X207264000Y-134382380D02*
X207264000Y-133382380D01*
X207740190Y-133382380D01*
X208264000Y-133382380D02*
X208264000Y-133620476D01*
X208025904Y-133525238D02*
X208264000Y-133620476D01*
X208502095Y-133525238D01*
X208121142Y-133810952D02*
X208264000Y-133620476D01*
X208406857Y-133810952D01*
X209025904Y-133382380D02*
X209025904Y-133620476D01*
X208787809Y-133525238D02*
X209025904Y-133620476D01*
X209264000Y-133525238D01*
X208883047Y-133810952D02*
X209025904Y-133620476D01*
X209168761Y-133810952D01*
X169681904Y-85602380D02*
X169681904Y-86411904D01*
X169729523Y-86507142D01*
X169777142Y-86554761D01*
X169872380Y-86602380D01*
X170062857Y-86602380D01*
X170158095Y-86554761D01*
X170205714Y-86507142D01*
X170253333Y-86411904D01*
X170253333Y-85602380D01*
X170634285Y-85602380D02*
X171253333Y-85602380D01*
X170920000Y-85983333D01*
X171062857Y-85983333D01*
X171158095Y-86030952D01*
X171205714Y-86078571D01*
X171253333Y-86173809D01*
X171253333Y-86411904D01*
X171205714Y-86507142D01*
X171158095Y-86554761D01*
X171062857Y-86602380D01*
X170777142Y-86602380D01*
X170681904Y-86554761D01*
X170634285Y-86507142D01*
X172205714Y-86602380D02*
X171634285Y-86602380D01*
X171920000Y-86602380D02*
X171920000Y-85602380D01*
X171824761Y-85745238D01*
X171729523Y-85840476D01*
X171634285Y-85888095D01*
X169681904Y-117602380D02*
X169681904Y-118411904D01*
X169729523Y-118507142D01*
X169777142Y-118554761D01*
X169872380Y-118602380D01*
X170062857Y-118602380D01*
X170158095Y-118554761D01*
X170205714Y-118507142D01*
X170253333Y-118411904D01*
X170253333Y-117602380D01*
X171158095Y-117935714D02*
X171158095Y-118602380D01*
X170920000Y-117554761D02*
X170681904Y-118269047D01*
X171300952Y-118269047D01*
X172158095Y-117602380D02*
X171681904Y-117602380D01*
X171634285Y-118078571D01*
X171681904Y-118030952D01*
X171777142Y-117983333D01*
X172015238Y-117983333D01*
X172110476Y-118030952D01*
X172158095Y-118078571D01*
X172205714Y-118173809D01*
X172205714Y-118411904D01*
X172158095Y-118507142D01*
X172110476Y-118554761D01*
X172015238Y-118602380D01*
X171777142Y-118602380D01*
X171681904Y-118554761D01*
X171634285Y-118507142D01*
X145605666Y-111014380D02*
X145272333Y-110538190D01*
X145034238Y-111014380D02*
X145034238Y-110014380D01*
X145415190Y-110014380D01*
X145510428Y-110062000D01*
X145558047Y-110109619D01*
X145605666Y-110204857D01*
X145605666Y-110347714D01*
X145558047Y-110442952D01*
X145510428Y-110490571D01*
X145415190Y-110538190D01*
X145034238Y-110538190D01*
X146034238Y-110490571D02*
X146367571Y-110490571D01*
X146510428Y-111014380D02*
X146034238Y-111014380D01*
X146034238Y-110014380D01*
X146510428Y-110014380D01*
X147272333Y-110490571D02*
X146939000Y-110490571D01*
X146939000Y-111014380D02*
X146939000Y-110014380D01*
X147415190Y-110014380D01*
X147939000Y-110014380D02*
X147939000Y-110252476D01*
X147700904Y-110157238D02*
X147939000Y-110252476D01*
X148177095Y-110157238D01*
X147796142Y-110442952D02*
X147939000Y-110252476D01*
X148081857Y-110442952D01*
X148700904Y-110014380D02*
X148700904Y-110252476D01*
X148462809Y-110157238D02*
X148700904Y-110252476D01*
X148939000Y-110157238D01*
X148558047Y-110442952D02*
X148700904Y-110252476D01*
X148843761Y-110442952D01*
X225615666Y-111014380D02*
X225282333Y-110538190D01*
X225044238Y-111014380D02*
X225044238Y-110014380D01*
X225425190Y-110014380D01*
X225520428Y-110062000D01*
X225568047Y-110109619D01*
X225615666Y-110204857D01*
X225615666Y-110347714D01*
X225568047Y-110442952D01*
X225520428Y-110490571D01*
X225425190Y-110538190D01*
X225044238Y-110538190D01*
X226044238Y-110490571D02*
X226377571Y-110490571D01*
X226520428Y-111014380D02*
X226044238Y-111014380D01*
X226044238Y-110014380D01*
X226520428Y-110014380D01*
X227282333Y-110490571D02*
X226949000Y-110490571D01*
X226949000Y-111014380D02*
X226949000Y-110014380D01*
X227425190Y-110014380D01*
X227949000Y-110014380D02*
X227949000Y-110252476D01*
X227710904Y-110157238D02*
X227949000Y-110252476D01*
X228187095Y-110157238D01*
X227806142Y-110442952D02*
X227949000Y-110252476D01*
X228091857Y-110442952D01*
X228710904Y-110014380D02*
X228710904Y-110252476D01*
X228472809Y-110157238D02*
X228710904Y-110252476D01*
X228949000Y-110157238D01*
X228568047Y-110442952D02*
X228710904Y-110252476D01*
X228853761Y-110442952D01*
X225615666Y-32020380D02*
X225282333Y-31544190D01*
X225044238Y-32020380D02*
X225044238Y-31020380D01*
X225425190Y-31020380D01*
X225520428Y-31068000D01*
X225568047Y-31115619D01*
X225615666Y-31210857D01*
X225615666Y-31353714D01*
X225568047Y-31448952D01*
X225520428Y-31496571D01*
X225425190Y-31544190D01*
X225044238Y-31544190D01*
X226044238Y-31496571D02*
X226377571Y-31496571D01*
X226520428Y-32020380D02*
X226044238Y-32020380D01*
X226044238Y-31020380D01*
X226520428Y-31020380D01*
X227282333Y-31496571D02*
X226949000Y-31496571D01*
X226949000Y-32020380D02*
X226949000Y-31020380D01*
X227425190Y-31020380D01*
X227949000Y-31020380D02*
X227949000Y-31258476D01*
X227710904Y-31163238D02*
X227949000Y-31258476D01*
X228187095Y-31163238D01*
X227806142Y-31448952D02*
X227949000Y-31258476D01*
X228091857Y-31448952D01*
X228710904Y-31020380D02*
X228710904Y-31258476D01*
X228472809Y-31163238D02*
X228710904Y-31258476D01*
X228949000Y-31163238D01*
X228568047Y-31448952D02*
X228710904Y-31258476D01*
X228853761Y-31448952D01*
X145605666Y-32020380D02*
X145272333Y-31544190D01*
X145034238Y-32020380D02*
X145034238Y-31020380D01*
X145415190Y-31020380D01*
X145510428Y-31068000D01*
X145558047Y-31115619D01*
X145605666Y-31210857D01*
X145605666Y-31353714D01*
X145558047Y-31448952D01*
X145510428Y-31496571D01*
X145415190Y-31544190D01*
X145034238Y-31544190D01*
X146034238Y-31496571D02*
X146367571Y-31496571D01*
X146510428Y-32020380D02*
X146034238Y-32020380D01*
X146034238Y-31020380D01*
X146510428Y-31020380D01*
X147272333Y-31496571D02*
X146939000Y-31496571D01*
X146939000Y-32020380D02*
X146939000Y-31020380D01*
X147415190Y-31020380D01*
X147939000Y-31020380D02*
X147939000Y-31258476D01*
X147700904Y-31163238D02*
X147939000Y-31258476D01*
X148177095Y-31163238D01*
X147796142Y-31448952D02*
X147939000Y-31258476D01*
X148081857Y-31448952D01*
X148700904Y-31020380D02*
X148700904Y-31258476D01*
X148462809Y-31163238D02*
X148700904Y-31258476D01*
X148939000Y-31163238D01*
X148558047Y-31448952D02*
X148700904Y-31258476D01*
X148843761Y-31448952D01*
X233681904Y-37602380D02*
X233681904Y-38411904D01*
X233729523Y-38507142D01*
X233777142Y-38554761D01*
X233872380Y-38602380D01*
X234062857Y-38602380D01*
X234158095Y-38554761D01*
X234205714Y-38507142D01*
X234253333Y-38411904D01*
X234253333Y-37602380D01*
X235253333Y-38602380D02*
X234681904Y-38602380D01*
X234967619Y-38602380D02*
X234967619Y-37602380D01*
X234872380Y-37745238D01*
X234777142Y-37840476D01*
X234681904Y-37888095D01*
X236110476Y-37935714D02*
X236110476Y-38602380D01*
X235872380Y-37554761D02*
X235634285Y-38269047D01*
X236253333Y-38269047D01*
X185681904Y-53602380D02*
X185681904Y-54411904D01*
X185729523Y-54507142D01*
X185777142Y-54554761D01*
X185872380Y-54602380D01*
X186062857Y-54602380D01*
X186158095Y-54554761D01*
X186205714Y-54507142D01*
X186253333Y-54411904D01*
X186253333Y-53602380D01*
X187253333Y-54602380D02*
X186681904Y-54602380D01*
X186967619Y-54602380D02*
X186967619Y-53602380D01*
X186872380Y-53745238D01*
X186777142Y-53840476D01*
X186681904Y-53888095D01*
X187824761Y-54030952D02*
X187729523Y-53983333D01*
X187681904Y-53935714D01*
X187634285Y-53840476D01*
X187634285Y-53792857D01*
X187681904Y-53697619D01*
X187729523Y-53650000D01*
X187824761Y-53602380D01*
X188015238Y-53602380D01*
X188110476Y-53650000D01*
X188158095Y-53697619D01*
X188205714Y-53792857D01*
X188205714Y-53840476D01*
X188158095Y-53935714D01*
X188110476Y-53983333D01*
X188015238Y-54030952D01*
X187824761Y-54030952D01*
X187729523Y-54078571D01*
X187681904Y-54126190D01*
X187634285Y-54221428D01*
X187634285Y-54411904D01*
X187681904Y-54507142D01*
X187729523Y-54554761D01*
X187824761Y-54602380D01*
X188015238Y-54602380D01*
X188110476Y-54554761D01*
X188158095Y-54507142D01*
X188205714Y-54411904D01*
X188205714Y-54221428D01*
X188158095Y-54126190D01*
X188110476Y-54078571D01*
X188015238Y-54030952D01*
X169681904Y-69602380D02*
X169681904Y-70411904D01*
X169729523Y-70507142D01*
X169777142Y-70554761D01*
X169872380Y-70602380D01*
X170062857Y-70602380D01*
X170158095Y-70554761D01*
X170205714Y-70507142D01*
X170253333Y-70411904D01*
X170253333Y-69602380D01*
X170681904Y-69697619D02*
X170729523Y-69650000D01*
X170824761Y-69602380D01*
X171062857Y-69602380D01*
X171158095Y-69650000D01*
X171205714Y-69697619D01*
X171253333Y-69792857D01*
X171253333Y-69888095D01*
X171205714Y-70030952D01*
X170634285Y-70602380D01*
X171253333Y-70602380D01*
X172110476Y-69935714D02*
X172110476Y-70602380D01*
X171872380Y-69554761D02*
X171634285Y-70269047D01*
X172253333Y-70269047D01*
X153681904Y-69602380D02*
X153681904Y-70411904D01*
X153729523Y-70507142D01*
X153777142Y-70554761D01*
X153872380Y-70602380D01*
X154062857Y-70602380D01*
X154158095Y-70554761D01*
X154205714Y-70507142D01*
X154253333Y-70411904D01*
X154253333Y-69602380D01*
X154681904Y-69697619D02*
X154729523Y-69650000D01*
X154824761Y-69602380D01*
X155062857Y-69602380D01*
X155158095Y-69650000D01*
X155205714Y-69697619D01*
X155253333Y-69792857D01*
X155253333Y-69888095D01*
X155205714Y-70030952D01*
X154634285Y-70602380D01*
X155253333Y-70602380D01*
X155586666Y-69602380D02*
X156205714Y-69602380D01*
X155872380Y-69983333D01*
X156015238Y-69983333D01*
X156110476Y-70030952D01*
X156158095Y-70078571D01*
X156205714Y-70173809D01*
X156205714Y-70411904D01*
X156158095Y-70507142D01*
X156110476Y-70554761D01*
X156015238Y-70602380D01*
X155729523Y-70602380D01*
X155634285Y-70554761D01*
X155586666Y-70507142D01*
X185681904Y-85602380D02*
X185681904Y-86411904D01*
X185729523Y-86507142D01*
X185777142Y-86554761D01*
X185872380Y-86602380D01*
X186062857Y-86602380D01*
X186158095Y-86554761D01*
X186205714Y-86507142D01*
X186253333Y-86411904D01*
X186253333Y-85602380D01*
X186634285Y-85602380D02*
X187253333Y-85602380D01*
X186920000Y-85983333D01*
X187062857Y-85983333D01*
X187158095Y-86030952D01*
X187205714Y-86078571D01*
X187253333Y-86173809D01*
X187253333Y-86411904D01*
X187205714Y-86507142D01*
X187158095Y-86554761D01*
X187062857Y-86602380D01*
X186777142Y-86602380D01*
X186681904Y-86554761D01*
X186634285Y-86507142D01*
X187634285Y-85697619D02*
X187681904Y-85650000D01*
X187777142Y-85602380D01*
X188015238Y-85602380D01*
X188110476Y-85650000D01*
X188158095Y-85697619D01*
X188205714Y-85792857D01*
X188205714Y-85888095D01*
X188158095Y-86030952D01*
X187586666Y-86602380D01*
X188205714Y-86602380D01*
X201681904Y-53602380D02*
X201681904Y-54411904D01*
X201729523Y-54507142D01*
X201777142Y-54554761D01*
X201872380Y-54602380D01*
X202062857Y-54602380D01*
X202158095Y-54554761D01*
X202205714Y-54507142D01*
X202253333Y-54411904D01*
X202253333Y-53602380D01*
X203253333Y-54602380D02*
X202681904Y-54602380D01*
X202967619Y-54602380D02*
X202967619Y-53602380D01*
X202872380Y-53745238D01*
X202777142Y-53840476D01*
X202681904Y-53888095D01*
X203729523Y-54602380D02*
X203920000Y-54602380D01*
X204015238Y-54554761D01*
X204062857Y-54507142D01*
X204158095Y-54364285D01*
X204205714Y-54173809D01*
X204205714Y-53792857D01*
X204158095Y-53697619D01*
X204110476Y-53650000D01*
X204015238Y-53602380D01*
X203824761Y-53602380D01*
X203729523Y-53650000D01*
X203681904Y-53697619D01*
X203634285Y-53792857D01*
X203634285Y-54030952D01*
X203681904Y-54126190D01*
X203729523Y-54173809D01*
X203824761Y-54221428D01*
X204015238Y-54221428D01*
X204110476Y-54173809D01*
X204158095Y-54126190D01*
X204205714Y-54030952D01*
X233681904Y-53602380D02*
X233681904Y-54411904D01*
X233729523Y-54507142D01*
X233777142Y-54554761D01*
X233872380Y-54602380D01*
X234062857Y-54602380D01*
X234158095Y-54554761D01*
X234205714Y-54507142D01*
X234253333Y-54411904D01*
X234253333Y-53602380D01*
X234681904Y-53697619D02*
X234729523Y-53650000D01*
X234824761Y-53602380D01*
X235062857Y-53602380D01*
X235158095Y-53650000D01*
X235205714Y-53697619D01*
X235253333Y-53792857D01*
X235253333Y-53888095D01*
X235205714Y-54030952D01*
X234634285Y-54602380D01*
X235253333Y-54602380D01*
X236205714Y-54602380D02*
X235634285Y-54602380D01*
X235920000Y-54602380D02*
X235920000Y-53602380D01*
X235824761Y-53745238D01*
X235729523Y-53840476D01*
X235634285Y-53888095D01*
X201681904Y-69602380D02*
X201681904Y-70411904D01*
X201729523Y-70507142D01*
X201777142Y-70554761D01*
X201872380Y-70602380D01*
X202062857Y-70602380D01*
X202158095Y-70554761D01*
X202205714Y-70507142D01*
X202253333Y-70411904D01*
X202253333Y-69602380D01*
X202681904Y-69697619D02*
X202729523Y-69650000D01*
X202824761Y-69602380D01*
X203062857Y-69602380D01*
X203158095Y-69650000D01*
X203205714Y-69697619D01*
X203253333Y-69792857D01*
X203253333Y-69888095D01*
X203205714Y-70030952D01*
X202634285Y-70602380D01*
X203253333Y-70602380D01*
X204110476Y-69602380D02*
X203920000Y-69602380D01*
X203824761Y-69650000D01*
X203777142Y-69697619D01*
X203681904Y-69840476D01*
X203634285Y-70030952D01*
X203634285Y-70411904D01*
X203681904Y-70507142D01*
X203729523Y-70554761D01*
X203824761Y-70602380D01*
X204015238Y-70602380D01*
X204110476Y-70554761D01*
X204158095Y-70507142D01*
X204205714Y-70411904D01*
X204205714Y-70173809D01*
X204158095Y-70078571D01*
X204110476Y-70030952D01*
X204015238Y-69983333D01*
X203824761Y-69983333D01*
X203729523Y-70030952D01*
X203681904Y-70078571D01*
X203634285Y-70173809D01*
X169681904Y-53602380D02*
X169681904Y-54411904D01*
X169729523Y-54507142D01*
X169777142Y-54554761D01*
X169872380Y-54602380D01*
X170062857Y-54602380D01*
X170158095Y-54554761D01*
X170205714Y-54507142D01*
X170253333Y-54411904D01*
X170253333Y-53602380D01*
X171253333Y-54602380D02*
X170681904Y-54602380D01*
X170967619Y-54602380D02*
X170967619Y-53602380D01*
X170872380Y-53745238D01*
X170777142Y-53840476D01*
X170681904Y-53888095D01*
X171586666Y-53602380D02*
X172253333Y-53602380D01*
X171824761Y-54602380D01*
X217681904Y-53602380D02*
X217681904Y-54411904D01*
X217729523Y-54507142D01*
X217777142Y-54554761D01*
X217872380Y-54602380D01*
X218062857Y-54602380D01*
X218158095Y-54554761D01*
X218205714Y-54507142D01*
X218253333Y-54411904D01*
X218253333Y-53602380D01*
X218681904Y-53697619D02*
X218729523Y-53650000D01*
X218824761Y-53602380D01*
X219062857Y-53602380D01*
X219158095Y-53650000D01*
X219205714Y-53697619D01*
X219253333Y-53792857D01*
X219253333Y-53888095D01*
X219205714Y-54030952D01*
X218634285Y-54602380D01*
X219253333Y-54602380D01*
X219872380Y-53602380D02*
X219967619Y-53602380D01*
X220062857Y-53650000D01*
X220110476Y-53697619D01*
X220158095Y-53792857D01*
X220205714Y-53983333D01*
X220205714Y-54221428D01*
X220158095Y-54411904D01*
X220110476Y-54507142D01*
X220062857Y-54554761D01*
X219967619Y-54602380D01*
X219872380Y-54602380D01*
X219777142Y-54554761D01*
X219729523Y-54507142D01*
X219681904Y-54411904D01*
X219634285Y-54221428D01*
X219634285Y-53983333D01*
X219681904Y-53792857D01*
X219729523Y-53697619D01*
X219777142Y-53650000D01*
X219872380Y-53602380D01*
X153681904Y-85602380D02*
X153681904Y-86411904D01*
X153729523Y-86507142D01*
X153777142Y-86554761D01*
X153872380Y-86602380D01*
X154062857Y-86602380D01*
X154158095Y-86554761D01*
X154205714Y-86507142D01*
X154253333Y-86411904D01*
X154253333Y-85602380D01*
X154634285Y-85602380D02*
X155253333Y-85602380D01*
X154920000Y-85983333D01*
X155062857Y-85983333D01*
X155158095Y-86030952D01*
X155205714Y-86078571D01*
X155253333Y-86173809D01*
X155253333Y-86411904D01*
X155205714Y-86507142D01*
X155158095Y-86554761D01*
X155062857Y-86602380D01*
X154777142Y-86602380D01*
X154681904Y-86554761D01*
X154634285Y-86507142D01*
X155872380Y-85602380D02*
X155967619Y-85602380D01*
X156062857Y-85650000D01*
X156110476Y-85697619D01*
X156158095Y-85792857D01*
X156205714Y-85983333D01*
X156205714Y-86221428D01*
X156158095Y-86411904D01*
X156110476Y-86507142D01*
X156062857Y-86554761D01*
X155967619Y-86602380D01*
X155872380Y-86602380D01*
X155777142Y-86554761D01*
X155729523Y-86507142D01*
X155681904Y-86411904D01*
X155634285Y-86221428D01*
X155634285Y-85983333D01*
X155681904Y-85792857D01*
X155729523Y-85697619D01*
X155777142Y-85650000D01*
X155872380Y-85602380D01*
X217681904Y-69602380D02*
X217681904Y-70411904D01*
X217729523Y-70507142D01*
X217777142Y-70554761D01*
X217872380Y-70602380D01*
X218062857Y-70602380D01*
X218158095Y-70554761D01*
X218205714Y-70507142D01*
X218253333Y-70411904D01*
X218253333Y-69602380D01*
X218681904Y-69697619D02*
X218729523Y-69650000D01*
X218824761Y-69602380D01*
X219062857Y-69602380D01*
X219158095Y-69650000D01*
X219205714Y-69697619D01*
X219253333Y-69792857D01*
X219253333Y-69888095D01*
X219205714Y-70030952D01*
X218634285Y-70602380D01*
X219253333Y-70602380D01*
X219586666Y-69602380D02*
X220253333Y-69602380D01*
X219824761Y-70602380D01*
X217681904Y-37602380D02*
X217681904Y-38411904D01*
X217729523Y-38507142D01*
X217777142Y-38554761D01*
X217872380Y-38602380D01*
X218062857Y-38602380D01*
X218158095Y-38554761D01*
X218205714Y-38507142D01*
X218253333Y-38411904D01*
X218253333Y-37602380D01*
X219253333Y-38602380D02*
X218681904Y-38602380D01*
X218967619Y-38602380D02*
X218967619Y-37602380D01*
X218872380Y-37745238D01*
X218777142Y-37840476D01*
X218681904Y-37888095D01*
X219586666Y-37602380D02*
X220205714Y-37602380D01*
X219872380Y-37983333D01*
X220015238Y-37983333D01*
X220110476Y-38030952D01*
X220158095Y-38078571D01*
X220205714Y-38173809D01*
X220205714Y-38411904D01*
X220158095Y-38507142D01*
X220110476Y-38554761D01*
X220015238Y-38602380D01*
X219729523Y-38602380D01*
X219634285Y-38554761D01*
X219586666Y-38507142D01*
X153681904Y-53602380D02*
X153681904Y-54411904D01*
X153729523Y-54507142D01*
X153777142Y-54554761D01*
X153872380Y-54602380D01*
X154062857Y-54602380D01*
X154158095Y-54554761D01*
X154205714Y-54507142D01*
X154253333Y-54411904D01*
X154253333Y-53602380D01*
X155253333Y-54602380D02*
X154681904Y-54602380D01*
X154967619Y-54602380D02*
X154967619Y-53602380D01*
X154872380Y-53745238D01*
X154777142Y-53840476D01*
X154681904Y-53888095D01*
X156110476Y-53602380D02*
X155920000Y-53602380D01*
X155824761Y-53650000D01*
X155777142Y-53697619D01*
X155681904Y-53840476D01*
X155634285Y-54030952D01*
X155634285Y-54411904D01*
X155681904Y-54507142D01*
X155729523Y-54554761D01*
X155824761Y-54602380D01*
X156015238Y-54602380D01*
X156110476Y-54554761D01*
X156158095Y-54507142D01*
X156205714Y-54411904D01*
X156205714Y-54173809D01*
X156158095Y-54078571D01*
X156110476Y-54030952D01*
X156015238Y-53983333D01*
X155824761Y-53983333D01*
X155729523Y-54030952D01*
X155681904Y-54078571D01*
X155634285Y-54173809D01*
X185681904Y-69602380D02*
X185681904Y-70411904D01*
X185729523Y-70507142D01*
X185777142Y-70554761D01*
X185872380Y-70602380D01*
X186062857Y-70602380D01*
X186158095Y-70554761D01*
X186205714Y-70507142D01*
X186253333Y-70411904D01*
X186253333Y-69602380D01*
X186681904Y-69697619D02*
X186729523Y-69650000D01*
X186824761Y-69602380D01*
X187062857Y-69602380D01*
X187158095Y-69650000D01*
X187205714Y-69697619D01*
X187253333Y-69792857D01*
X187253333Y-69888095D01*
X187205714Y-70030952D01*
X186634285Y-70602380D01*
X187253333Y-70602380D01*
X188158095Y-69602380D02*
X187681904Y-69602380D01*
X187634285Y-70078571D01*
X187681904Y-70030952D01*
X187777142Y-69983333D01*
X188015238Y-69983333D01*
X188110476Y-70030952D01*
X188158095Y-70078571D01*
X188205714Y-70173809D01*
X188205714Y-70411904D01*
X188158095Y-70507142D01*
X188110476Y-70554761D01*
X188015238Y-70602380D01*
X187777142Y-70602380D01*
X187681904Y-70554761D01*
X187634285Y-70507142D01*
X233681904Y-69602380D02*
X233681904Y-70411904D01*
X233729523Y-70507142D01*
X233777142Y-70554761D01*
X233872380Y-70602380D01*
X234062857Y-70602380D01*
X234158095Y-70554761D01*
X234205714Y-70507142D01*
X234253333Y-70411904D01*
X234253333Y-69602380D01*
X234681904Y-69697619D02*
X234729523Y-69650000D01*
X234824761Y-69602380D01*
X235062857Y-69602380D01*
X235158095Y-69650000D01*
X235205714Y-69697619D01*
X235253333Y-69792857D01*
X235253333Y-69888095D01*
X235205714Y-70030952D01*
X234634285Y-70602380D01*
X235253333Y-70602380D01*
X235824761Y-70030952D02*
X235729523Y-69983333D01*
X235681904Y-69935714D01*
X235634285Y-69840476D01*
X235634285Y-69792857D01*
X235681904Y-69697619D01*
X235729523Y-69650000D01*
X235824761Y-69602380D01*
X236015238Y-69602380D01*
X236110476Y-69650000D01*
X236158095Y-69697619D01*
X236205714Y-69792857D01*
X236205714Y-69840476D01*
X236158095Y-69935714D01*
X236110476Y-69983333D01*
X236015238Y-70030952D01*
X235824761Y-70030952D01*
X235729523Y-70078571D01*
X235681904Y-70126190D01*
X235634285Y-70221428D01*
X235634285Y-70411904D01*
X235681904Y-70507142D01*
X235729523Y-70554761D01*
X235824761Y-70602380D01*
X236015238Y-70602380D01*
X236110476Y-70554761D01*
X236158095Y-70507142D01*
X236205714Y-70411904D01*
X236205714Y-70221428D01*
X236158095Y-70126190D01*
X236110476Y-70078571D01*
X236015238Y-70030952D01*
X233681904Y-85602380D02*
X233681904Y-86411904D01*
X233729523Y-86507142D01*
X233777142Y-86554761D01*
X233872380Y-86602380D01*
X234062857Y-86602380D01*
X234158095Y-86554761D01*
X234205714Y-86507142D01*
X234253333Y-86411904D01*
X234253333Y-85602380D01*
X234634285Y-85602380D02*
X235253333Y-85602380D01*
X234920000Y-85983333D01*
X235062857Y-85983333D01*
X235158095Y-86030952D01*
X235205714Y-86078571D01*
X235253333Y-86173809D01*
X235253333Y-86411904D01*
X235205714Y-86507142D01*
X235158095Y-86554761D01*
X235062857Y-86602380D01*
X234777142Y-86602380D01*
X234681904Y-86554761D01*
X234634285Y-86507142D01*
X236158095Y-85602380D02*
X235681904Y-85602380D01*
X235634285Y-86078571D01*
X235681904Y-86030952D01*
X235777142Y-85983333D01*
X236015238Y-85983333D01*
X236110476Y-86030952D01*
X236158095Y-86078571D01*
X236205714Y-86173809D01*
X236205714Y-86411904D01*
X236158095Y-86507142D01*
X236110476Y-86554761D01*
X236015238Y-86602380D01*
X235777142Y-86602380D01*
X235681904Y-86554761D01*
X235634285Y-86507142D01*
X217681904Y-85602380D02*
X217681904Y-86411904D01*
X217729523Y-86507142D01*
X217777142Y-86554761D01*
X217872380Y-86602380D01*
X218062857Y-86602380D01*
X218158095Y-86554761D01*
X218205714Y-86507142D01*
X218253333Y-86411904D01*
X218253333Y-85602380D01*
X218634285Y-85602380D02*
X219253333Y-85602380D01*
X218920000Y-85983333D01*
X219062857Y-85983333D01*
X219158095Y-86030952D01*
X219205714Y-86078571D01*
X219253333Y-86173809D01*
X219253333Y-86411904D01*
X219205714Y-86507142D01*
X219158095Y-86554761D01*
X219062857Y-86602380D01*
X218777142Y-86602380D01*
X218681904Y-86554761D01*
X218634285Y-86507142D01*
X220110476Y-85935714D02*
X220110476Y-86602380D01*
X219872380Y-85554761D02*
X219634285Y-86269047D01*
X220253333Y-86269047D01*
X201681904Y-85602380D02*
X201681904Y-86411904D01*
X201729523Y-86507142D01*
X201777142Y-86554761D01*
X201872380Y-86602380D01*
X202062857Y-86602380D01*
X202158095Y-86554761D01*
X202205714Y-86507142D01*
X202253333Y-86411904D01*
X202253333Y-85602380D01*
X202634285Y-85602380D02*
X203253333Y-85602380D01*
X202920000Y-85983333D01*
X203062857Y-85983333D01*
X203158095Y-86030952D01*
X203205714Y-86078571D01*
X203253333Y-86173809D01*
X203253333Y-86411904D01*
X203205714Y-86507142D01*
X203158095Y-86554761D01*
X203062857Y-86602380D01*
X202777142Y-86602380D01*
X202681904Y-86554761D01*
X202634285Y-86507142D01*
X203586666Y-85602380D02*
X204205714Y-85602380D01*
X203872380Y-85983333D01*
X204015238Y-85983333D01*
X204110476Y-86030952D01*
X204158095Y-86078571D01*
X204205714Y-86173809D01*
X204205714Y-86411904D01*
X204158095Y-86507142D01*
X204110476Y-86554761D01*
X204015238Y-86602380D01*
X203729523Y-86602380D01*
X203634285Y-86554761D01*
X203586666Y-86507142D01*
X169681904Y-101602380D02*
X169681904Y-102411904D01*
X169729523Y-102507142D01*
X169777142Y-102554761D01*
X169872380Y-102602380D01*
X170062857Y-102602380D01*
X170158095Y-102554761D01*
X170205714Y-102507142D01*
X170253333Y-102411904D01*
X170253333Y-101602380D01*
X170634285Y-101602380D02*
X171253333Y-101602380D01*
X170920000Y-101983333D01*
X171062857Y-101983333D01*
X171158095Y-102030952D01*
X171205714Y-102078571D01*
X171253333Y-102173809D01*
X171253333Y-102411904D01*
X171205714Y-102507142D01*
X171158095Y-102554761D01*
X171062857Y-102602380D01*
X170777142Y-102602380D01*
X170681904Y-102554761D01*
X170634285Y-102507142D01*
X171824761Y-102030952D02*
X171729523Y-101983333D01*
X171681904Y-101935714D01*
X171634285Y-101840476D01*
X171634285Y-101792857D01*
X171681904Y-101697619D01*
X171729523Y-101650000D01*
X171824761Y-101602380D01*
X172015238Y-101602380D01*
X172110476Y-101650000D01*
X172158095Y-101697619D01*
X172205714Y-101792857D01*
X172205714Y-101840476D01*
X172158095Y-101935714D01*
X172110476Y-101983333D01*
X172015238Y-102030952D01*
X171824761Y-102030952D01*
X171729523Y-102078571D01*
X171681904Y-102126190D01*
X171634285Y-102221428D01*
X171634285Y-102411904D01*
X171681904Y-102507142D01*
X171729523Y-102554761D01*
X171824761Y-102602380D01*
X172015238Y-102602380D01*
X172110476Y-102554761D01*
X172158095Y-102507142D01*
X172205714Y-102411904D01*
X172205714Y-102221428D01*
X172158095Y-102126190D01*
X172110476Y-102078571D01*
X172015238Y-102030952D01*
X217681904Y-101602380D02*
X217681904Y-102411904D01*
X217729523Y-102507142D01*
X217777142Y-102554761D01*
X217872380Y-102602380D01*
X218062857Y-102602380D01*
X218158095Y-102554761D01*
X218205714Y-102507142D01*
X218253333Y-102411904D01*
X218253333Y-101602380D01*
X219158095Y-101935714D02*
X219158095Y-102602380D01*
X218920000Y-101554761D02*
X218681904Y-102269047D01*
X219300952Y-102269047D01*
X220205714Y-102602380D02*
X219634285Y-102602380D01*
X219920000Y-102602380D02*
X219920000Y-101602380D01*
X219824761Y-101745238D01*
X219729523Y-101840476D01*
X219634285Y-101888095D01*
X233681904Y-101602380D02*
X233681904Y-102411904D01*
X233729523Y-102507142D01*
X233777142Y-102554761D01*
X233872380Y-102602380D01*
X234062857Y-102602380D01*
X234158095Y-102554761D01*
X234205714Y-102507142D01*
X234253333Y-102411904D01*
X234253333Y-101602380D01*
X235158095Y-101935714D02*
X235158095Y-102602380D01*
X234920000Y-101554761D02*
X234681904Y-102269047D01*
X235300952Y-102269047D01*
X235634285Y-101697619D02*
X235681904Y-101650000D01*
X235777142Y-101602380D01*
X236015238Y-101602380D01*
X236110476Y-101650000D01*
X236158095Y-101697619D01*
X236205714Y-101792857D01*
X236205714Y-101888095D01*
X236158095Y-102030952D01*
X235586666Y-102602380D01*
X236205714Y-102602380D01*
X185681904Y-101602380D02*
X185681904Y-102411904D01*
X185729523Y-102507142D01*
X185777142Y-102554761D01*
X185872380Y-102602380D01*
X186062857Y-102602380D01*
X186158095Y-102554761D01*
X186205714Y-102507142D01*
X186253333Y-102411904D01*
X186253333Y-101602380D01*
X186634285Y-101602380D02*
X187253333Y-101602380D01*
X186920000Y-101983333D01*
X187062857Y-101983333D01*
X187158095Y-102030952D01*
X187205714Y-102078571D01*
X187253333Y-102173809D01*
X187253333Y-102411904D01*
X187205714Y-102507142D01*
X187158095Y-102554761D01*
X187062857Y-102602380D01*
X186777142Y-102602380D01*
X186681904Y-102554761D01*
X186634285Y-102507142D01*
X187729523Y-102602380D02*
X187920000Y-102602380D01*
X188015238Y-102554761D01*
X188062857Y-102507142D01*
X188158095Y-102364285D01*
X188205714Y-102173809D01*
X188205714Y-101792857D01*
X188158095Y-101697619D01*
X188110476Y-101650000D01*
X188015238Y-101602380D01*
X187824761Y-101602380D01*
X187729523Y-101650000D01*
X187681904Y-101697619D01*
X187634285Y-101792857D01*
X187634285Y-102030952D01*
X187681904Y-102126190D01*
X187729523Y-102173809D01*
X187824761Y-102221428D01*
X188015238Y-102221428D01*
X188110476Y-102173809D01*
X188158095Y-102126190D01*
X188205714Y-102030952D01*
X153681904Y-117602380D02*
X153681904Y-118411904D01*
X153729523Y-118507142D01*
X153777142Y-118554761D01*
X153872380Y-118602380D01*
X154062857Y-118602380D01*
X154158095Y-118554761D01*
X154205714Y-118507142D01*
X154253333Y-118411904D01*
X154253333Y-117602380D01*
X155158095Y-117935714D02*
X155158095Y-118602380D01*
X154920000Y-117554761D02*
X154681904Y-118269047D01*
X155300952Y-118269047D01*
X156110476Y-117935714D02*
X156110476Y-118602380D01*
X155872380Y-117554761D02*
X155634285Y-118269047D01*
X156253333Y-118269047D01*
X153681904Y-101602380D02*
X153681904Y-102411904D01*
X153729523Y-102507142D01*
X153777142Y-102554761D01*
X153872380Y-102602380D01*
X154062857Y-102602380D01*
X154158095Y-102554761D01*
X154205714Y-102507142D01*
X154253333Y-102411904D01*
X154253333Y-101602380D01*
X154634285Y-101602380D02*
X155253333Y-101602380D01*
X154920000Y-101983333D01*
X155062857Y-101983333D01*
X155158095Y-102030952D01*
X155205714Y-102078571D01*
X155253333Y-102173809D01*
X155253333Y-102411904D01*
X155205714Y-102507142D01*
X155158095Y-102554761D01*
X155062857Y-102602380D01*
X154777142Y-102602380D01*
X154681904Y-102554761D01*
X154634285Y-102507142D01*
X155586666Y-101602380D02*
X156253333Y-101602380D01*
X155824761Y-102602380D01*
X201681904Y-101602380D02*
X201681904Y-102411904D01*
X201729523Y-102507142D01*
X201777142Y-102554761D01*
X201872380Y-102602380D01*
X202062857Y-102602380D01*
X202158095Y-102554761D01*
X202205714Y-102507142D01*
X202253333Y-102411904D01*
X202253333Y-101602380D01*
X203158095Y-101935714D02*
X203158095Y-102602380D01*
X202920000Y-101554761D02*
X202681904Y-102269047D01*
X203300952Y-102269047D01*
X203872380Y-101602380D02*
X203967619Y-101602380D01*
X204062857Y-101650000D01*
X204110476Y-101697619D01*
X204158095Y-101792857D01*
X204205714Y-101983333D01*
X204205714Y-102221428D01*
X204158095Y-102411904D01*
X204110476Y-102507142D01*
X204062857Y-102554761D01*
X203967619Y-102602380D01*
X203872380Y-102602380D01*
X203777142Y-102554761D01*
X203729523Y-102507142D01*
X203681904Y-102411904D01*
X203634285Y-102221428D01*
X203634285Y-101983333D01*
X203681904Y-101792857D01*
X203729523Y-101697619D01*
X203777142Y-101650000D01*
X203872380Y-101602380D01*
X185681904Y-117602380D02*
X185681904Y-118411904D01*
X185729523Y-118507142D01*
X185777142Y-118554761D01*
X185872380Y-118602380D01*
X186062857Y-118602380D01*
X186158095Y-118554761D01*
X186205714Y-118507142D01*
X186253333Y-118411904D01*
X186253333Y-117602380D01*
X187158095Y-117935714D02*
X187158095Y-118602380D01*
X186920000Y-117554761D02*
X186681904Y-118269047D01*
X187300952Y-118269047D01*
X188110476Y-117602380D02*
X187920000Y-117602380D01*
X187824761Y-117650000D01*
X187777142Y-117697619D01*
X187681904Y-117840476D01*
X187634285Y-118030952D01*
X187634285Y-118411904D01*
X187681904Y-118507142D01*
X187729523Y-118554761D01*
X187824761Y-118602380D01*
X188015238Y-118602380D01*
X188110476Y-118554761D01*
X188158095Y-118507142D01*
X188205714Y-118411904D01*
X188205714Y-118173809D01*
X188158095Y-118078571D01*
X188110476Y-118030952D01*
X188015238Y-117983333D01*
X187824761Y-117983333D01*
X187729523Y-118030952D01*
X187681904Y-118078571D01*
X187634285Y-118173809D01*
X201681904Y-117602380D02*
X201681904Y-118411904D01*
X201729523Y-118507142D01*
X201777142Y-118554761D01*
X201872380Y-118602380D01*
X202062857Y-118602380D01*
X202158095Y-118554761D01*
X202205714Y-118507142D01*
X202253333Y-118411904D01*
X202253333Y-117602380D01*
X203158095Y-117935714D02*
X203158095Y-118602380D01*
X202920000Y-117554761D02*
X202681904Y-118269047D01*
X203300952Y-118269047D01*
X203586666Y-117602380D02*
X204253333Y-117602380D01*
X203824761Y-118602380D01*
X217681904Y-117602380D02*
X217681904Y-118411904D01*
X217729523Y-118507142D01*
X217777142Y-118554761D01*
X217872380Y-118602380D01*
X218062857Y-118602380D01*
X218158095Y-118554761D01*
X218205714Y-118507142D01*
X218253333Y-118411904D01*
X218253333Y-117602380D01*
X219158095Y-117935714D02*
X219158095Y-118602380D01*
X218920000Y-117554761D02*
X218681904Y-118269047D01*
X219300952Y-118269047D01*
X219824761Y-118030952D02*
X219729523Y-117983333D01*
X219681904Y-117935714D01*
X219634285Y-117840476D01*
X219634285Y-117792857D01*
X219681904Y-117697619D01*
X219729523Y-117650000D01*
X219824761Y-117602380D01*
X220015238Y-117602380D01*
X220110476Y-117650000D01*
X220158095Y-117697619D01*
X220205714Y-117792857D01*
X220205714Y-117840476D01*
X220158095Y-117935714D01*
X220110476Y-117983333D01*
X220015238Y-118030952D01*
X219824761Y-118030952D01*
X219729523Y-118078571D01*
X219681904Y-118126190D01*
X219634285Y-118221428D01*
X219634285Y-118411904D01*
X219681904Y-118507142D01*
X219729523Y-118554761D01*
X219824761Y-118602380D01*
X220015238Y-118602380D01*
X220110476Y-118554761D01*
X220158095Y-118507142D01*
X220205714Y-118411904D01*
X220205714Y-118221428D01*
X220158095Y-118126190D01*
X220110476Y-118078571D01*
X220015238Y-118030952D01*
X233681904Y-117602380D02*
X233681904Y-118411904D01*
X233729523Y-118507142D01*
X233777142Y-118554761D01*
X233872380Y-118602380D01*
X234062857Y-118602380D01*
X234158095Y-118554761D01*
X234205714Y-118507142D01*
X234253333Y-118411904D01*
X234253333Y-117602380D01*
X235158095Y-117935714D02*
X235158095Y-118602380D01*
X234920000Y-117554761D02*
X234681904Y-118269047D01*
X235300952Y-118269047D01*
X235729523Y-118602380D02*
X235920000Y-118602380D01*
X236015238Y-118554761D01*
X236062857Y-118507142D01*
X236158095Y-118364285D01*
X236205714Y-118173809D01*
X236205714Y-117792857D01*
X236158095Y-117697619D01*
X236110476Y-117650000D01*
X236015238Y-117602380D01*
X235824761Y-117602380D01*
X235729523Y-117650000D01*
X235681904Y-117697619D01*
X235634285Y-117792857D01*
X235634285Y-118030952D01*
X235681904Y-118126190D01*
X235729523Y-118173809D01*
X235824761Y-118221428D01*
X236015238Y-118221428D01*
X236110476Y-118173809D01*
X236158095Y-118126190D01*
X236205714Y-118030952D01*
X234158095Y-21602380D02*
X234158095Y-22411904D01*
X234205714Y-22507142D01*
X234253333Y-22554761D01*
X234348571Y-22602380D01*
X234539047Y-22602380D01*
X234634285Y-22554761D01*
X234681904Y-22507142D01*
X234729523Y-22411904D01*
X234729523Y-21602380D01*
X235110476Y-21602380D02*
X235777142Y-21602380D01*
X235348571Y-22602380D01*
X170158095Y-21602380D02*
X170158095Y-22411904D01*
X170205714Y-22507142D01*
X170253333Y-22554761D01*
X170348571Y-22602380D01*
X170539047Y-22602380D01*
X170634285Y-22554761D01*
X170681904Y-22507142D01*
X170729523Y-22411904D01*
X170729523Y-21602380D01*
X171110476Y-21602380D02*
X171729523Y-21602380D01*
X171396190Y-21983333D01*
X171539047Y-21983333D01*
X171634285Y-22030952D01*
X171681904Y-22078571D01*
X171729523Y-22173809D01*
X171729523Y-22411904D01*
X171681904Y-22507142D01*
X171634285Y-22554761D01*
X171539047Y-22602380D01*
X171253333Y-22602380D01*
X171158095Y-22554761D01*
X171110476Y-22507142D01*
X154158095Y-37602380D02*
X154158095Y-38411904D01*
X154205714Y-38507142D01*
X154253333Y-38554761D01*
X154348571Y-38602380D01*
X154539047Y-38602380D01*
X154634285Y-38554761D01*
X154681904Y-38507142D01*
X154729523Y-38411904D01*
X154729523Y-37602380D01*
X155253333Y-38602380D02*
X155443809Y-38602380D01*
X155539047Y-38554761D01*
X155586666Y-38507142D01*
X155681904Y-38364285D01*
X155729523Y-38173809D01*
X155729523Y-37792857D01*
X155681904Y-37697619D01*
X155634285Y-37650000D01*
X155539047Y-37602380D01*
X155348571Y-37602380D01*
X155253333Y-37650000D01*
X155205714Y-37697619D01*
X155158095Y-37792857D01*
X155158095Y-38030952D01*
X155205714Y-38126190D01*
X155253333Y-38173809D01*
X155348571Y-38221428D01*
X155539047Y-38221428D01*
X155634285Y-38173809D01*
X155681904Y-38126190D01*
X155729523Y-38030952D01*
X169681904Y-37602380D02*
X169681904Y-38411904D01*
X169729523Y-38507142D01*
X169777142Y-38554761D01*
X169872380Y-38602380D01*
X170062857Y-38602380D01*
X170158095Y-38554761D01*
X170205714Y-38507142D01*
X170253333Y-38411904D01*
X170253333Y-37602380D01*
X171253333Y-38602380D02*
X170681904Y-38602380D01*
X170967619Y-38602380D02*
X170967619Y-37602380D01*
X170872380Y-37745238D01*
X170777142Y-37840476D01*
X170681904Y-37888095D01*
X171872380Y-37602380D02*
X171967619Y-37602380D01*
X172062857Y-37650000D01*
X172110476Y-37697619D01*
X172158095Y-37792857D01*
X172205714Y-37983333D01*
X172205714Y-38221428D01*
X172158095Y-38411904D01*
X172110476Y-38507142D01*
X172062857Y-38554761D01*
X171967619Y-38602380D01*
X171872380Y-38602380D01*
X171777142Y-38554761D01*
X171729523Y-38507142D01*
X171681904Y-38411904D01*
X171634285Y-38221428D01*
X171634285Y-37983333D01*
X171681904Y-37792857D01*
X171729523Y-37697619D01*
X171777142Y-37650000D01*
X171872380Y-37602380D01*
X202158095Y-21602380D02*
X202158095Y-22411904D01*
X202205714Y-22507142D01*
X202253333Y-22554761D01*
X202348571Y-22602380D01*
X202539047Y-22602380D01*
X202634285Y-22554761D01*
X202681904Y-22507142D01*
X202729523Y-22411904D01*
X202729523Y-21602380D01*
X203681904Y-21602380D02*
X203205714Y-21602380D01*
X203158095Y-22078571D01*
X203205714Y-22030952D01*
X203300952Y-21983333D01*
X203539047Y-21983333D01*
X203634285Y-22030952D01*
X203681904Y-22078571D01*
X203729523Y-22173809D01*
X203729523Y-22411904D01*
X203681904Y-22507142D01*
X203634285Y-22554761D01*
X203539047Y-22602380D01*
X203300952Y-22602380D01*
X203205714Y-22554761D01*
X203158095Y-22507142D01*
X218158095Y-21602380D02*
X218158095Y-22411904D01*
X218205714Y-22507142D01*
X218253333Y-22554761D01*
X218348571Y-22602380D01*
X218539047Y-22602380D01*
X218634285Y-22554761D01*
X218681904Y-22507142D01*
X218729523Y-22411904D01*
X218729523Y-21602380D01*
X219634285Y-21602380D02*
X219443809Y-21602380D01*
X219348571Y-21650000D01*
X219300952Y-21697619D01*
X219205714Y-21840476D01*
X219158095Y-22030952D01*
X219158095Y-22411904D01*
X219205714Y-22507142D01*
X219253333Y-22554761D01*
X219348571Y-22602380D01*
X219539047Y-22602380D01*
X219634285Y-22554761D01*
X219681904Y-22507142D01*
X219729523Y-22411904D01*
X219729523Y-22173809D01*
X219681904Y-22078571D01*
X219634285Y-22030952D01*
X219539047Y-21983333D01*
X219348571Y-21983333D01*
X219253333Y-22030952D01*
X219205714Y-22078571D01*
X219158095Y-22173809D01*
X185681904Y-37602380D02*
X185681904Y-38411904D01*
X185729523Y-38507142D01*
X185777142Y-38554761D01*
X185872380Y-38602380D01*
X186062857Y-38602380D01*
X186158095Y-38554761D01*
X186205714Y-38507142D01*
X186253333Y-38411904D01*
X186253333Y-37602380D01*
X187253333Y-38602380D02*
X186681904Y-38602380D01*
X186967619Y-38602380D02*
X186967619Y-37602380D01*
X186872380Y-37745238D01*
X186777142Y-37840476D01*
X186681904Y-37888095D01*
X188205714Y-38602380D02*
X187634285Y-38602380D01*
X187920000Y-38602380D02*
X187920000Y-37602380D01*
X187824761Y-37745238D01*
X187729523Y-37840476D01*
X187634285Y-37888095D01*
X201681904Y-37602380D02*
X201681904Y-38411904D01*
X201729523Y-38507142D01*
X201777142Y-38554761D01*
X201872380Y-38602380D01*
X202062857Y-38602380D01*
X202158095Y-38554761D01*
X202205714Y-38507142D01*
X202253333Y-38411904D01*
X202253333Y-37602380D01*
X203253333Y-38602380D02*
X202681904Y-38602380D01*
X202967619Y-38602380D02*
X202967619Y-37602380D01*
X202872380Y-37745238D01*
X202777142Y-37840476D01*
X202681904Y-37888095D01*
X203634285Y-37697619D02*
X203681904Y-37650000D01*
X203777142Y-37602380D01*
X204015238Y-37602380D01*
X204110476Y-37650000D01*
X204158095Y-37697619D01*
X204205714Y-37792857D01*
X204205714Y-37888095D01*
X204158095Y-38030952D01*
X203586666Y-38602380D01*
X204205714Y-38602380D01*
X186158095Y-21602380D02*
X186158095Y-22411904D01*
X186205714Y-22507142D01*
X186253333Y-22554761D01*
X186348571Y-22602380D01*
X186539047Y-22602380D01*
X186634285Y-22554761D01*
X186681904Y-22507142D01*
X186729523Y-22411904D01*
X186729523Y-21602380D01*
X187634285Y-21935714D02*
X187634285Y-22602380D01*
X187396190Y-21554761D02*
X187158095Y-22269047D01*
X187777142Y-22269047D01*
X154158095Y-21602380D02*
X154158095Y-22411904D01*
X154205714Y-22507142D01*
X154253333Y-22554761D01*
X154348571Y-22602380D01*
X154539047Y-22602380D01*
X154634285Y-22554761D01*
X154681904Y-22507142D01*
X154729523Y-22411904D01*
X154729523Y-21602380D01*
X155158095Y-21697619D02*
X155205714Y-21650000D01*
X155300952Y-21602380D01*
X155539047Y-21602380D01*
X155634285Y-21650000D01*
X155681904Y-21697619D01*
X155729523Y-21792857D01*
X155729523Y-21888095D01*
X155681904Y-22030952D01*
X155110476Y-22602380D01*
X155729523Y-22602380D01*
X137681904Y-101602380D02*
X137681904Y-102411904D01*
X137729523Y-102507142D01*
X137777142Y-102554761D01*
X137872380Y-102602380D01*
X138062857Y-102602380D01*
X138158095Y-102554761D01*
X138205714Y-102507142D01*
X138253333Y-102411904D01*
X138253333Y-101602380D01*
X138634285Y-101602380D02*
X139253333Y-101602380D01*
X138920000Y-101983333D01*
X139062857Y-101983333D01*
X139158095Y-102030952D01*
X139205714Y-102078571D01*
X139253333Y-102173809D01*
X139253333Y-102411904D01*
X139205714Y-102507142D01*
X139158095Y-102554761D01*
X139062857Y-102602380D01*
X138777142Y-102602380D01*
X138681904Y-102554761D01*
X138634285Y-102507142D01*
X140110476Y-101602380D02*
X139920000Y-101602380D01*
X139824761Y-101650000D01*
X139777142Y-101697619D01*
X139681904Y-101840476D01*
X139634285Y-102030952D01*
X139634285Y-102411904D01*
X139681904Y-102507142D01*
X139729523Y-102554761D01*
X139824761Y-102602380D01*
X140015238Y-102602380D01*
X140110476Y-102554761D01*
X140158095Y-102507142D01*
X140205714Y-102411904D01*
X140205714Y-102173809D01*
X140158095Y-102078571D01*
X140110476Y-102030952D01*
X140015238Y-101983333D01*
X139824761Y-101983333D01*
X139729523Y-102030952D01*
X139681904Y-102078571D01*
X139634285Y-102173809D01*
X137681904Y-69602380D02*
X137681904Y-70411904D01*
X137729523Y-70507142D01*
X137777142Y-70554761D01*
X137872380Y-70602380D01*
X138062857Y-70602380D01*
X138158095Y-70554761D01*
X138205714Y-70507142D01*
X138253333Y-70411904D01*
X138253333Y-69602380D01*
X138681904Y-69697619D02*
X138729523Y-69650000D01*
X138824761Y-69602380D01*
X139062857Y-69602380D01*
X139158095Y-69650000D01*
X139205714Y-69697619D01*
X139253333Y-69792857D01*
X139253333Y-69888095D01*
X139205714Y-70030952D01*
X138634285Y-70602380D01*
X139253333Y-70602380D01*
X139634285Y-69697619D02*
X139681904Y-69650000D01*
X139777142Y-69602380D01*
X140015238Y-69602380D01*
X140110476Y-69650000D01*
X140158095Y-69697619D01*
X140205714Y-69792857D01*
X140205714Y-69888095D01*
X140158095Y-70030952D01*
X139586666Y-70602380D01*
X140205714Y-70602380D01*
X137681904Y-53602380D02*
X137681904Y-54411904D01*
X137729523Y-54507142D01*
X137777142Y-54554761D01*
X137872380Y-54602380D01*
X138062857Y-54602380D01*
X138158095Y-54554761D01*
X138205714Y-54507142D01*
X138253333Y-54411904D01*
X138253333Y-53602380D01*
X139253333Y-54602380D02*
X138681904Y-54602380D01*
X138967619Y-54602380D02*
X138967619Y-53602380D01*
X138872380Y-53745238D01*
X138777142Y-53840476D01*
X138681904Y-53888095D01*
X140158095Y-53602380D02*
X139681904Y-53602380D01*
X139634285Y-54078571D01*
X139681904Y-54030952D01*
X139777142Y-53983333D01*
X140015238Y-53983333D01*
X140110476Y-54030952D01*
X140158095Y-54078571D01*
X140205714Y-54173809D01*
X140205714Y-54411904D01*
X140158095Y-54507142D01*
X140110476Y-54554761D01*
X140015238Y-54602380D01*
X139777142Y-54602380D01*
X139681904Y-54554761D01*
X139634285Y-54507142D01*
X137681904Y-85602380D02*
X137681904Y-86411904D01*
X137729523Y-86507142D01*
X137777142Y-86554761D01*
X137872380Y-86602380D01*
X138062857Y-86602380D01*
X138158095Y-86554761D01*
X138205714Y-86507142D01*
X138253333Y-86411904D01*
X138253333Y-85602380D01*
X138681904Y-85697619D02*
X138729523Y-85650000D01*
X138824761Y-85602380D01*
X139062857Y-85602380D01*
X139158095Y-85650000D01*
X139205714Y-85697619D01*
X139253333Y-85792857D01*
X139253333Y-85888095D01*
X139205714Y-86030952D01*
X138634285Y-86602380D01*
X139253333Y-86602380D01*
X139729523Y-86602380D02*
X139920000Y-86602380D01*
X140015238Y-86554761D01*
X140062857Y-86507142D01*
X140158095Y-86364285D01*
X140205714Y-86173809D01*
X140205714Y-85792857D01*
X140158095Y-85697619D01*
X140110476Y-85650000D01*
X140015238Y-85602380D01*
X139824761Y-85602380D01*
X139729523Y-85650000D01*
X139681904Y-85697619D01*
X139634285Y-85792857D01*
X139634285Y-86030952D01*
X139681904Y-86126190D01*
X139729523Y-86173809D01*
X139824761Y-86221428D01*
X140015238Y-86221428D01*
X140110476Y-86173809D01*
X140158095Y-86126190D01*
X140205714Y-86030952D01*
X137681904Y-117602380D02*
X137681904Y-118411904D01*
X137729523Y-118507142D01*
X137777142Y-118554761D01*
X137872380Y-118602380D01*
X138062857Y-118602380D01*
X138158095Y-118554761D01*
X138205714Y-118507142D01*
X138253333Y-118411904D01*
X138253333Y-117602380D01*
X139158095Y-117935714D02*
X139158095Y-118602380D01*
X138920000Y-117554761D02*
X138681904Y-118269047D01*
X139300952Y-118269047D01*
X139586666Y-117602380D02*
X140205714Y-117602380D01*
X139872380Y-117983333D01*
X140015238Y-117983333D01*
X140110476Y-118030952D01*
X140158095Y-118078571D01*
X140205714Y-118173809D01*
X140205714Y-118411904D01*
X140158095Y-118507142D01*
X140110476Y-118554761D01*
X140015238Y-118602380D01*
X139729523Y-118602380D01*
X139634285Y-118554761D01*
X139586666Y-118507142D01*
X138158095Y-37602380D02*
X138158095Y-38411904D01*
X138205714Y-38507142D01*
X138253333Y-38554761D01*
X138348571Y-38602380D01*
X138539047Y-38602380D01*
X138634285Y-38554761D01*
X138681904Y-38507142D01*
X138729523Y-38411904D01*
X138729523Y-37602380D01*
X139348571Y-38030952D02*
X139253333Y-37983333D01*
X139205714Y-37935714D01*
X139158095Y-37840476D01*
X139158095Y-37792857D01*
X139205714Y-37697619D01*
X139253333Y-37650000D01*
X139348571Y-37602380D01*
X139539047Y-37602380D01*
X139634285Y-37650000D01*
X139681904Y-37697619D01*
X139729523Y-37792857D01*
X139729523Y-37840476D01*
X139681904Y-37935714D01*
X139634285Y-37983333D01*
X139539047Y-38030952D01*
X139348571Y-38030952D01*
X139253333Y-38078571D01*
X139205714Y-38126190D01*
X139158095Y-38221428D01*
X139158095Y-38411904D01*
X139205714Y-38507142D01*
X139253333Y-38554761D01*
X139348571Y-38602380D01*
X139539047Y-38602380D01*
X139634285Y-38554761D01*
X139681904Y-38507142D01*
X139729523Y-38411904D01*
X139729523Y-38221428D01*
X139681904Y-38126190D01*
X139634285Y-38078571D01*
X139539047Y-38030952D01*
X138158095Y-21602380D02*
X138158095Y-22411904D01*
X138205714Y-22507142D01*
X138253333Y-22554761D01*
X138348571Y-22602380D01*
X138539047Y-22602380D01*
X138634285Y-22554761D01*
X138681904Y-22507142D01*
X138729523Y-22411904D01*
X138729523Y-21602380D01*
X139729523Y-22602380D02*
X139158095Y-22602380D01*
X139443809Y-22602380D02*
X139443809Y-21602380D01*
X139348571Y-21745238D01*
X139253333Y-21840476D01*
X139158095Y-21888095D01*
X158980142Y-137453666D02*
X159027761Y-137501285D01*
X159075380Y-137644142D01*
X159075380Y-137739380D01*
X159027761Y-137882238D01*
X158932523Y-137977476D01*
X158837285Y-138025095D01*
X158646809Y-138072714D01*
X158503952Y-138072714D01*
X158313476Y-138025095D01*
X158218238Y-137977476D01*
X158123000Y-137882238D01*
X158075380Y-137739380D01*
X158075380Y-137644142D01*
X158123000Y-137501285D01*
X158170619Y-137453666D01*
X159075380Y-136501285D02*
X159075380Y-137072714D01*
X159075380Y-136787000D02*
X158075380Y-136787000D01*
X158218238Y-136882238D01*
X158313476Y-136977476D01*
X158361095Y-137072714D01*
X145137380Y-144413333D02*
X145851666Y-144413333D01*
X145994523Y-144460952D01*
X146089761Y-144556190D01*
X146137380Y-144699047D01*
X146137380Y-144794285D01*
X145232619Y-143984761D02*
X145185000Y-143937142D01*
X145137380Y-143841904D01*
X145137380Y-143603809D01*
X145185000Y-143508571D01*
X145232619Y-143460952D01*
X145327857Y-143413333D01*
X145423095Y-143413333D01*
X145565952Y-143460952D01*
X146137380Y-144032380D01*
X146137380Y-143413333D01*
X167600333Y-130172380D02*
X167267000Y-129696190D01*
X167028904Y-130172380D02*
X167028904Y-129172380D01*
X167409857Y-129172380D01*
X167505095Y-129220000D01*
X167552714Y-129267619D01*
X167600333Y-129362857D01*
X167600333Y-129505714D01*
X167552714Y-129600952D01*
X167505095Y-129648571D01*
X167409857Y-129696190D01*
X167028904Y-129696190D01*
X168552714Y-130172380D02*
X167981285Y-130172380D01*
X168267000Y-130172380D02*
X168267000Y-129172380D01*
X168171761Y-129315238D01*
X168076523Y-129410476D01*
X167981285Y-129458095D01*
X162436333Y-127272380D02*
X162103000Y-126796190D01*
X161864904Y-127272380D02*
X161864904Y-126272380D01*
X162245857Y-126272380D01*
X162341095Y-126320000D01*
X162388714Y-126367619D01*
X162436333Y-126462857D01*
X162436333Y-126605714D01*
X162388714Y-126700952D01*
X162341095Y-126748571D01*
X162245857Y-126796190D01*
X161864904Y-126796190D01*
X162817285Y-126367619D02*
X162864904Y-126320000D01*
X162960142Y-126272380D01*
X163198238Y-126272380D01*
X163293476Y-126320000D01*
X163341095Y-126367619D01*
X163388714Y-126462857D01*
X163388714Y-126558095D01*
X163341095Y-126700952D01*
X162769666Y-127272380D01*
X163388714Y-127272380D01*
D15*
X162886571Y-127217714D02*
X162886571Y-127834571D01*
X162922857Y-127907142D01*
X162959142Y-127943428D01*
X163031714Y-127979714D01*
X163176857Y-127979714D01*
X163249428Y-127943428D01*
X163285714Y-127907142D01*
X163322000Y-127834571D01*
X163322000Y-127217714D01*
X164047714Y-127217714D02*
X163684857Y-127217714D01*
X163648571Y-127580571D01*
X163684857Y-127544285D01*
X163757428Y-127508000D01*
X163938857Y-127508000D01*
X164011428Y-127544285D01*
X164047714Y-127580571D01*
X164084000Y-127653142D01*
X164084000Y-127834571D01*
X164047714Y-127907142D01*
X164011428Y-127943428D01*
X163938857Y-127979714D01*
X163757428Y-127979714D01*
X163684857Y-127943428D01*
X163648571Y-127907142D01*
X164809714Y-127979714D02*
X164374285Y-127979714D01*
X164592000Y-127979714D02*
X164592000Y-127217714D01*
X164519428Y-127326571D01*
X164446857Y-127399142D01*
X164374285Y-127435428D01*
M02*
